<?xml version="1.0" encoding="utf-8"?>
<!-- Generator: Adobe Illustrator 23.1.1, SVG Export Plug-In . SVG Version: 6.00 Build 0)  -->
<svg version="1.1" id="Layer_1" xmlns="http://www.w3.org/2000/svg" xmlns:xlink="http://www.w3.org/1999/xlink" x="0px" y="0px"
	 viewBox="0 0 1920 1080" style="enable-background:new 0 0 1920 1080;" xml:space="preserve">
<style type="text/css">
	.st0{opacity:0.05;}
	.st1{clip-path:url(#SVGID_2_);fill:#3A3A3A;}
	.st2{clip-path:url(#SVGID_4_);fill:#3A3A3A;}
	.st3{fill:#EFD313;}
	.st4{clip-path:url(#SVGID_6_);fill:#3A3A3A;}
	.st5{fill:#C9215A;}
	.st6{clip-path:url(#SVGID_8_);fill:#3A3A3A;}
	.st7{fill:#0B9BBF;}
	.st8{clip-path:url(#SVGID_10_);fill:#3A3A3A;}
	.st9{clip-path:url(#SVGID_12_);fill:#3A3A3A;}
	.st10{clip-path:url(#SVGID_14_);fill:#3A3A3A;}
	.st11{clip-path:url(#SVGID_16_);fill:#3A3A3A;}
	.st12{clip-path:url(#SVGID_18_);fill:#3A3A3A;}
	.st13{clip-path:url(#SVGID_20_);fill:#3A3A3A;}
	.st14{clip-path:url(#SVGID_22_);fill:#3A3A3A;}
	.st15{clip-path:url(#SVGID_24_);fill:#3A3A3A;}
	.st16{clip-path:url(#SVGID_26_);fill:#3A3A3A;}
	.st17{clip-path:url(#SVGID_28_);fill:#3A3A3A;}
</style>
<g>
	<g>
		<g class="st0">
			<g>
				<defs>
					<rect id="SVGID_1_" x="1034.73" y="75.27" width="31.58" height="60.5"/>
				</defs>
				<clipPath id="SVGID_2_">
					<use xlink:href="#SVGID_1_"  style="overflow:visible;"/>
				</clipPath>
				<polygon class="st1" points="1058.45,75.27 1034.73,75.27 1052.89,135.77 1059.05,135.77 1066.31,109.16 				"/>
			</g>
		</g>
		<g class="st0">
			<g>
				<defs>
					<rect id="SVGID_3_" x="1083.31" y="75.27" width="18.63" height="60.5"/>
				</defs>
				<clipPath id="SVGID_4_">
					<use xlink:href="#SVGID_3_"  style="overflow:visible;"/>
				</clipPath>
				<polygon class="st2" points="1090.94,75.27 1083.32,104.19 1091.76,135.77 1094.77,135.77 1101.94,109.16 1093.84,75.27 				"/>
			</g>
		</g>
		<polygon class="st3" points="1101.94,109.16 1101.94,109.16 1094.77,135.77 1113.16,135.77 1132.36,75.27 1111.08,75.27 		"/>
		<polygon class="st3" points="1075.57,75.27 1066.31,109.16 1059.05,135.77 1074.99,135.77 1083.32,104.19 1090.94,75.27 		"/>
		<g class="st0">
			<g>
				<defs>
					<rect id="SVGID_5_" x="1644.64" y="622.78" width="80.77" height="33.26"/>
				</defs>
				<clipPath id="SVGID_6_">
					<use xlink:href="#SVGID_5_"  style="overflow:visible;"/>
				</clipPath>
				<path class="st4" d="M1686.11,656.04c23.9,0,37.01-10.08,39.31-27.36h-26.5c-0.86,4.32-3.89,8.06-11.81,8.06
					c-8.06,0-13.39-4.9-14.11-13.97h-28.36C1647.01,644.3,1663.83,656.04,1686.11,656.04"/>
			</g>
		</g>
		<path class="st5" d="M1725.27,615.87c0-2.8-0.2-5.44-0.57-7.92h-26.79h-24.77h-28.02c-0.51,2.65-0.78,5.43-0.78,8.35v1.15
			c0,1.84,0.11,3.61,0.3,5.33H1673h52.27V615.87z"/>
		<g class="st0">
			<g>
				<defs>
					<rect id="SVGID_7_" x="1645.13" y="576.7" width="79.57" height="31.25"/>
				</defs>
				<clipPath id="SVGID_8_">
					<use xlink:href="#SVGID_7_"  style="overflow:visible;"/>
				</clipPath>
				<path class="st6" d="M1686.11,594.99c7.63,0,11.52,4.9,11.81,12.96h26.79c-3.2-21.52-19.62-31.25-38.59-31.25
					c-20.29,0-37.22,11.73-40.98,31.25h28.02C1674.3,599.45,1679.19,594.99,1686.11,594.99"/>
			</g>
		</g>
		<polygon class="st7" points="1489.25,982.14 1460.89,982.14 1460.89,1057.45 1489.25,1057.45 1489.25,1022.75 1489.25,997.41 		
			"/>
		<g class="st0">
			<g>
				<defs>
					<rect id="SVGID_9_" x="1489.25" y="981.13" width="24.19" height="41.62"/>
				</defs>
				<clipPath id="SVGID_10_">
					<use xlink:href="#SVGID_9_"  style="overflow:visible;"/>
				</clipPath>
				<path class="st8" d="M1489.25,997.41v25.34c0-10.8,8.49-15.98,24.19-15.12v-26.5C1502.21,980.99,1494.01,985.74,1489.25,997.41"
					/>
			</g>
		</g>
		<g class="st0">
			<g>
				<defs>
					<rect id="SVGID_11_" x="1438.35" y="586.12" width="31.58" height="60.5"/>
				</defs>
				<clipPath id="SVGID_12_">
					<use xlink:href="#SVGID_11_"  style="overflow:visible;"/>
				</clipPath>
				<polygon class="st9" points="1462.06,586.12 1438.35,586.12 1456.51,646.62 1462.67,646.62 1469.93,620.02 				"/>
			</g>
		</g>
		<g class="st0">
			<g>
				<defs>
					<rect id="SVGID_13_" x="1486.93" y="586.12" width="18.62" height="60.5"/>
				</defs>
				<clipPath id="SVGID_14_">
					<use xlink:href="#SVGID_13_"  style="overflow:visible;"/>
				</clipPath>
				<polygon class="st10" points="1494.56,586.12 1486.93,615.04 1495.38,646.62 1498.38,646.62 1505.56,620.02 1497.46,586.12 				
					"/>
			</g>
		</g>
		<polygon class="st3" points="1505.56,620.02 1505.56,620.02 1498.38,646.62 1516.78,646.62 1535.98,586.12 1514.7,586.12 		"/>
		<polygon class="st3" points="1479.18,586.12 1469.93,620.02 1462.67,646.62 1478.61,646.62 1486.93,615.04 1494.56,586.12 		"/>
		<path class="st7" d="M878.03,370.24c0-1.97-0.13-3.87-0.37-5.71h-28.87c0.29,1.81,0.43,3.81,0.43,6v1.01
			c0,2.64-0.22,4.99-0.64,7.07h28.88c0.37-2.3,0.57-4.7,0.57-7.22V370.24z"/>
		<g class="st0">
			<g>
				<defs>
					<rect id="SVGID_15_" x="794.67" y="331.51" width="82.99" height="33.02"/>
				</defs>
				<clipPath id="SVGID_16_">
					<use xlink:href="#SVGID_15_"  style="overflow:visible;"/>
				</clipPath>
				<path class="st11" d="M836.27,352.39c7.15,0,11.25,4.21,12.52,12.15h28.87c-2.66-20.75-19.83-33.03-41.39-33.03
					c-21.6,0-38.68,12.38-41.6,33.03h28.64C824.64,356.44,829.12,352.39,836.27,352.39"/>
			</g>
		</g>
		<path class="st7" d="M822.88,371.25v-1.15c0-2.03,0.15-3.88,0.43-5.56h-28.64c-0.29,2.06-0.45,4.21-0.45,6.43v1.15
			c0,2.26,0.16,4.42,0.45,6.5h28.88C823.11,376.46,822.88,374.01,822.88,371.25"/>
		<g class="st0">
			<g>
				<defs>
					<rect id="SVGID_17_" x="794.67" y="378.61" width="82.79" height="32.09"/>
				</defs>
				<clipPath id="SVGID_18_">
					<use xlink:href="#SVGID_17_"  style="overflow:visible;"/>
				</clipPath>
				<path class="st12" d="M836.27,389.83c-7.03,0-11.19-3.82-12.72-11.21h-28.88c2.95,20.67,20.12,32.09,41.45,32.09
					c21.09,0,38.1-11.75,41.34-32.09h-28.88C847.09,385.96,843,389.83,836.27,389.83"/>
			</g>
		</g>
		<polygon class="st5" points="539.22,302.71 520.35,302.71 520.35,410.71 539.22,410.71 539.22,369.09 539.22,347.49 		"/>
		<g class="st0">
			<g>
				<defs>
					<rect id="SVGID_19_" x="539.22" y="333.38" width="49.1" height="77.32"/>
				</defs>
				<clipPath id="SVGID_20_">
					<use xlink:href="#SVGID_19_"  style="overflow:visible;"/>
				</clipPath>
				<path class="st13" d="M564.13,333.38c-12.67,0-20.74,6.19-24.91,14.11v21.6c0-8.93,4.18-13.1,11.23-13.1
					c6.77,0,9.5,3.89,9.5,11.52v43.2h28.37v-49.54C588.32,342.45,578.39,333.38,564.13,333.38"/>
			</g>
		</g>
		<g class="st0">
			<g>
				<defs>
					<rect id="SVGID_21_" x="1644.64" y="1025.7" width="80.77" height="33.26"/>
				</defs>
				<clipPath id="SVGID_22_">
					<use xlink:href="#SVGID_21_"  style="overflow:visible;"/>
				</clipPath>
				<path class="st14" d="M1686.11,1058.96c23.9,0,37.01-10.08,39.31-27.36h-26.5c-0.86,4.32-3.89,8.06-11.81,8.06
					c-8.06,0-13.39-4.9-14.11-13.97h-28.36C1647.01,1047.22,1663.83,1058.96,1686.11,1058.96"/>
			</g>
		</g>
		<path class="st5" d="M1725.27,1018.79c0-2.8-0.2-5.44-0.57-7.92h-26.79h-24.77h-28.02c-0.51,2.65-0.78,5.43-0.78,8.35v1.15
			c0,1.84,0.11,3.61,0.3,5.33H1673h52.27V1018.79z"/>
		<g class="st0">
			<g>
				<defs>
					<rect id="SVGID_23_" x="1645.13" y="979.62" width="79.57" height="31.25"/>
				</defs>
				<clipPath id="SVGID_24_">
					<use xlink:href="#SVGID_23_"  style="overflow:visible;"/>
				</clipPath>
				<path class="st15" d="M1686.11,997.91c7.63,0,11.52,4.9,11.81,12.96h26.79c-3.2-21.52-19.62-31.25-38.59-31.25
					c-20.29,0-37.22,11.73-40.98,31.25h28.02C1674.3,1002.37,1679.19,997.91,1686.11,997.91"/>
			</g>
		</g>
		<path class="st5" d="M819.53,1001.72c0-17.38-7.94-26.39-21.4-28.38v30.02v1.41v15.38v3.86v26.38h21.4V1001.72z"/>
	</g>
	<g class="st0">
		<g>
			<defs>
				<rect id="SVGID_25_" x="753.06" y="972.66" width="44.96" height="30.44"/>
			</defs>
			<clipPath id="SVGID_26_">
				<use xlink:href="#SVGID_25_"  style="overflow:visible;"/>
			</clipPath>
			<path class="st16" d="M790.21,972.66c-21.6,0-36,9.36-37.15,27.79h26.49c0.43-3.89,2.45-8.06,8.93-8.06
				c7.63,0,9.54,4.38,9.54,10.71v-30.02C795.56,972.81,792.95,972.66,790.21,972.66"/>
		</g>
	</g>
	<g class="st0">
		<g>
			<defs>
				<rect id="SVGID_27_" x="750.32" y="1002.51" width="47.7" height="47.49"/>
			</defs>
			<clipPath id="SVGID_28_">
				<use xlink:href="#SVGID_27_"  style="overflow:visible;"/>
			</clipPath>
			<path class="st17" d="M786.18,1031c-5.18,0-7.92-2.3-7.92-5.9c0-5.33,3.46-7.2,12.96-7.2h6.8v-15.38l-7.24,0.12
				c-26.06,0-40.46,6.91-40.46,24.62c0,16.13,12.1,22.75,25.63,22.75c12.24,0,18.86-5.33,22.03-10.51v8.64h0.04v-26.38
				C798.02,1027.37,792.65,1031,786.18,1031"/>
		</g>
	</g>
</g>
</svg>
