<?xml version="1.0" encoding="utf-8"?>
<!-- Generator: Adobe Illustrator 23.1.1, SVG Export Plug-In . SVG Version: 6.00 Build 0)  -->
<svg version="1.1" id="Layer_1" xmlns="http://www.w3.org/2000/svg" xmlns:xlink="http://www.w3.org/1999/xlink" x="0px" y="0px"
	 viewBox="0 0 1920 1080" style="enable-background:new 0 0 1920 1080;" xml:space="preserve">
<style type="text/css">
	.st0{opacity:0.05;}
	.st1{clip-path:url(#SVGID_2_);fill:#3A3A3A;}
	.st2{fill:#EFD313;}
	.st3{clip-path:url(#SVGID_4_);fill:#3A3A3A;}
	.st4{fill:#0B9BBF;}
	.st5{clip-path:url(#SVGID_6_);fill:#3A3A3A;}
	.st6{clip-path:url(#SVGID_8_);fill:#3A3A3A;}
	.st7{clip-path:url(#SVGID_10_);fill:#3A3A3A;}
	.st8{clip-path:url(#SVGID_12_);fill:#3A3A3A;}
	.st9{fill:#C9215A;}
	.st10{clip-path:url(#SVGID_14_);fill:#3A3A3A;}
	.st11{clip-path:url(#SVGID_16_);fill:#3A3A3A;}
	.st12{clip-path:url(#SVGID_18_);fill:#3A3A3A;}
</style>
<g class="st0">
	<g>
		<defs>
			<rect id="SVGID_1_" x="1648.15" y="477.22" width="28.22" height="38.23"/>
		</defs>
		<clipPath id="SVGID_2_">
			<use xlink:href="#SVGID_1_"  style="overflow:visible;"/>
		</clipPath>
		<rect x="1648.14" y="477.22" class="st1" width="28.22" height="38.23"/>
	</g>
</g>
<rect x="1648.14" y="407.46" class="st2" width="28.22" height="69.77"/>
<g class="st0">
	<g>
		<defs>
			<rect id="SVGID_3_" x="1318.64" y="593.15" width="49.1" height="77.18"/>
		</defs>
		<clipPath id="SVGID_4_">
			<use xlink:href="#SVGID_3_"  style="overflow:visible;"/>
		</clipPath>
		<path class="st3" d="M1356.5,649.17c-6.62,0-9.5-3.89-9.5-11.52v-44.5h-28.37v49.39c0,18.72,10.8,27.79,25.2,27.79
			c12.67,0,19.73-5.47,23.9-13.54v-20.74C1367.74,644.99,1363.56,649.17,1356.5,649.17"/>
	</g>
</g>
<polygon class="st4" points="1367.74,593.15 1367.74,636.06 1367.74,656.8 1367.74,668.46 1396.1,668.46 1396.1,593.15 "/>
<g class="st0">
	<g>
		<defs>
			<rect id="SVGID_5_" x="1827.08" y="817.1" width="80.78" height="33.27"/>
		</defs>
		<clipPath id="SVGID_6_">
			<use xlink:href="#SVGID_5_"  style="overflow:visible;"/>
		</clipPath>
		<path class="st5" d="M1881.36,823.01c-0.86,4.32-3.89,8.06-11.81,8.06c-8.06,0-13.39-4.9-14.11-13.97h-28.36
			c2.36,21.52,19.19,33.26,41.46,33.26c23.9,0,37.01-10.08,39.31-27.36H1881.36z"/>
	</g>
</g>
<path class="st4" d="M1907.71,817.11v-6.91c0-2.8-0.2-5.44-0.57-7.92h-26.79h-24.77h-28.02c-0.51,2.65-0.78,5.43-0.78,8.35v1.15
	c0,1.84,0.11,3.61,0.3,5.33h28.36H1907.71z"/>
<g class="st0">
	<g>
		<defs>
			<rect id="SVGID_7_" x="1827.57" y="771.02" width="79.57" height="31.25"/>
		</defs>
		<clipPath id="SVGID_8_">
			<use xlink:href="#SVGID_7_"  style="overflow:visible;"/>
		</clipPath>
		<path class="st6" d="M1868.54,789.32c7.63,0,11.52,4.9,11.81,12.96h26.79c-3.2-21.52-19.62-31.25-38.6-31.25
			c-20.29,0-37.22,11.73-40.98,31.25h28.02C1856.73,793.78,1861.63,789.32,1868.54,789.32"/>
	</g>
</g>
<g class="st0">
	<g>
		<defs>
			<rect id="SVGID_9_" x="1020.97" y="176.79" width="44.97" height="30.45"/>
		</defs>
		<clipPath id="SVGID_10_">
			<use xlink:href="#SVGID_9_"  style="overflow:visible;"/>
		</clipPath>
		<path class="st7" d="M1058.12,176.8c-21.6,0-36,9.36-37.15,27.79h26.49c0.43-3.89,2.45-8.06,8.93-8.06
			c7.63,0,9.54,4.38,9.54,10.71v-30.02C1063.47,176.94,1060.86,176.8,1058.12,176.8"/>
	</g>
</g>
<g class="st0">
	<g>
		<defs>
			<rect id="SVGID_11_" x="1018.24" y="208.64" width="47.7" height="47.5"/>
		</defs>
		<clipPath id="SVGID_12_">
			<use xlink:href="#SVGID_11_"  style="overflow:visible;"/>
		</clipPath>
		<path class="st8" d="M1054.09,237.13c-5.18,0-7.92-2.3-7.92-5.9c0-5.33,3.46-7.2,12.96-7.2h6.8v-15.38l-7.24,0.12
			c-26.06,0-40.46,6.91-40.46,24.62c0,16.13,12.1,22.75,25.63,22.75c12.24,0,18.86-5.33,22.03-10.51v8.64h0.04v-26.38
			C1065.93,233.5,1060.57,237.13,1054.09,237.13"/>
	</g>
</g>
<path class="st9" d="M1087.33,205.6c0-17.38-7.94-26.39-21.4-28.38v30.02v1.41v15.38v3.86v26.38h21.4V205.6z"/>
<polygon class="st4" points="1447.47,114.33 1470.28,114.33 1497.78,39.04 1471.15,39.04 "/>
<g class="st0">
	<g>
		<defs>
			<rect id="SVGID_13_" x="1412.26" y="39.02" width="44.49" height="75.31"/>
		</defs>
		<clipPath id="SVGID_14_">
			<use xlink:href="#SVGID_13_"  style="overflow:visible;"/>
		</clipPath>
		<polyline class="st10" points="1456.75,84.81 1442.49,39.02 1412.25,39.02 1412.26,39.04 1439.9,114.33 1447.46,114.33 
			1447.47,114.33 		"/>
	</g>
</g>
<g class="st0">
	<g>
		<defs>
			<rect id="SVGID_15_" x="1323.72" y="961.44" width="66.92" height="24.91"/>
		</defs>
		<clipPath id="SVGID_16_">
			<use xlink:href="#SVGID_15_"  style="overflow:visible;"/>
		</clipPath>
		<path class="st11" d="M1349.46,986.04c-0.2-0.47-0.3-0.98-0.3-1.56c0-2.88,2.3-5.18,7.49-5.18c5.18,0,7.63,2.59,8.5,7.06h25.49
			c-1.73-18.43-14.83-24.91-34.42-24.91c-15.57,0-28.78,5.86-32.5,18.09l14.62,3.69L1349.46,986.04z"/>
	</g>
</g>
<g class="st0">
	<g>
		<defs>
			<rect id="SVGID_17_" x="1321.95" y="1014.72" width="69.72" height="26.07"/>
		</defs>
		<clipPath id="SVGID_18_">
			<use xlink:href="#SVGID_17_"  style="overflow:visible;"/>
		</clipPath>
		<path class="st12" d="M1365.14,1017.17c0,3.17-2.45,5.33-7.92,5.33c-6.48,0-8.5-2.88-9.36-7.78h-25.92
			c0.43,16.99,13.39,26.06,35.42,26.06c17.8,0,30.56-5.53,34.29-18.16l-26.72-6.75C1365.07,1016.28,1365.14,1016.71,1365.14,1017.17
			"/>
	</g>
</g>
<path class="st9" d="M1360.97,990.25c-6.97-0.72-10.52-1.85-11.51-4.2l-11.13-2.81l-14.62-3.69c-0.68,2.25-1.05,4.71-1.05,7.39
	c0,16.13,8.93,21.6,29.23,23.9c8.67,1.11,12.22,2.55,13.04,5.04l26.72,6.75c0.74-2.5,1.13-5.27,1.13-8.33
	C1392.79,998.02,1382.71,992.84,1360.97,990.25"/>
</svg>
