<?xml version="1.0" encoding="utf-8"?>
<!-- Generator: Adobe Illustrator 23.1.1, SVG Export Plug-In . SVG Version: 6.00 Build 0)  -->
<svg version="1.1" id="Layer_1" xmlns="http://www.w3.org/2000/svg" xmlns:xlink="http://www.w3.org/1999/xlink" x="0px" y="0px"
	 viewBox="0 0 1920 1080" style="enable-background:new 0 0 1920 1080;" xml:space="preserve">
<style type="text/css">
	.st0{opacity:0.05;}
	.st1{clip-path:url(#SVGID_2_);fill:#3A3A3A;}
	.st2{clip-path:url(#SVGID_4_);fill:#3A3A3A;}
	.st3{fill:#EFD313;}
	.st4{clip-path:url(#SVGID_6_);fill:#3A3A3A;}
	.st5{fill:#0B9BBF;}
	.st6{clip-path:url(#SVGID_8_);fill:#3A3A3A;}
	.st7{clip-path:url(#SVGID_10_);fill:#3A3A3A;}
	.st8{clip-path:url(#SVGID_12_);fill:#3A3A3A;}
	.st9{fill:#C9215A;}
	.st10{clip-path:url(#SVGID_14_);fill:#3A3A3A;}
	.st11{clip-path:url(#SVGID_16_);fill:#3A3A3A;}
	.st12{clip-path:url(#SVGID_18_);fill:#3A3A3A;}
	.st13{clip-path:url(#SVGID_20_);fill:#3A3A3A;}
	.st14{clip-path:url(#SVGID_22_);fill:#3A3A3A;}
	.st15{clip-path:url(#SVGID_24_);fill:#3A3A3A;}
</style>
<g class="st0">
	<g>
		<defs>
			<rect id="SVGID_1_" x="1125.7" y="29.04" width="31.58" height="60.5"/>
		</defs>
		<clipPath id="SVGID_2_">
			<use xlink:href="#SVGID_1_"  style="overflow:visible;"/>
		</clipPath>
		<polygon class="st1" points="1149.42,29.05 1125.7,29.05 1143.86,89.55 1150.02,89.55 1157.28,62.94 		"/>
	</g>
</g>
<g class="st0">
	<g>
		<defs>
			<rect id="SVGID_3_" x="1174.28" y="29.04" width="18.63" height="60.5"/>
		</defs>
		<clipPath id="SVGID_4_">
			<use xlink:href="#SVGID_3_"  style="overflow:visible;"/>
		</clipPath>
		<polygon class="st2" points="1181.91,29.05 1174.29,57.97 1182.73,89.55 1185.74,89.55 1192.91,62.94 1184.81,29.05 		"/>
	</g>
</g>
<polygon class="st3" points="1192.91,62.94 1192.91,62.94 1185.74,89.55 1204.13,89.55 1223.33,29.05 1202.05,29.05 "/>
<polygon class="st3" points="1166.54,29.05 1157.28,62.94 1150.02,89.55 1165.96,89.55 1174.29,57.97 1181.91,29.05 "/>
<g class="st0">
	<g>
		<defs>
			<rect id="SVGID_5_" x="611.32" y="312.12" width="80.77" height="33.26"/>
		</defs>
		<clipPath id="SVGID_6_">
			<use xlink:href="#SVGID_5_"  style="overflow:visible;"/>
		</clipPath>
		<path class="st4" d="M665.6,318.02c-0.86,4.32-3.89,8.06-11.81,8.06c-8.06,0-13.39-4.9-14.11-13.97h-28.36
			c2.37,21.52,19.19,33.26,41.46,33.26c23.9,0,37.01-10.08,39.31-27.36H665.6z"/>
	</g>
</g>
<path class="st5" d="M691.95,312.12v-6.91c0-2.8-0.2-5.44-0.57-7.92H664.6h-24.77h-28.02c-0.51,2.65-0.78,5.43-0.78,8.35v1.15
	c0,1.84,0.11,3.61,0.3,5.33h28.36H691.95z"/>
<g class="st0">
	<g>
		<defs>
			<rect id="SVGID_7_" x="611.81" y="266.04" width="79.57" height="31.24"/>
		</defs>
		<clipPath id="SVGID_8_">
			<use xlink:href="#SVGID_7_"  style="overflow:visible;"/>
		</clipPath>
		<path class="st6" d="M652.79,284.33c7.63,0,11.52,4.9,11.81,12.96h26.79c-3.2-21.52-19.62-31.25-38.6-31.25
			c-20.29,0-37.22,11.73-40.98,31.25h28.02C640.98,288.79,645.88,284.33,652.79,284.33"/>
	</g>
</g>
<g class="st0">
	<g>
		<defs>
			<rect id="SVGID_9_" x="888.26" y="266.04" width="44.96" height="30.44"/>
		</defs>
		<clipPath id="SVGID_10_">
			<use xlink:href="#SVGID_9_"  style="overflow:visible;"/>
		</clipPath>
		<path class="st7" d="M925.41,266.04c-21.6,0-36,9.36-37.15,27.79h26.49c0.43-3.89,2.45-8.06,8.93-8.06
			c7.63,0,9.54,4.38,9.54,10.71v-30.02C930.76,266.18,928.15,266.04,925.41,266.04"/>
	</g>
</g>
<g class="st0">
	<g>
		<defs>
			<rect id="SVGID_11_" x="885.52" y="297.89" width="47.7" height="47.49"/>
		</defs>
		<clipPath id="SVGID_12_">
			<use xlink:href="#SVGID_11_"  style="overflow:visible;"/>
		</clipPath>
		<path class="st8" d="M921.38,326.38c-5.18,0-7.92-2.3-7.92-5.9c0-5.33,3.46-7.2,12.96-7.2h6.8v-15.38l-7.24,0.12
			c-26.06,0-40.46,6.91-40.46,24.62c0,16.13,12.1,22.75,25.63,22.75c12.24,0,18.86-5.33,22.03-10.51v8.64h0.04v-26.38
			C933.22,322.75,927.86,326.38,921.38,326.38"/>
	</g>
</g>
<path class="st9" d="M954.62,294.84c0-17.38-7.94-26.39-21.4-28.38v30.02v1.41v15.38v3.86v26.38h21.4V294.84z"/>
<polygon class="st5" points="1565.56,540.31 1588.37,540.31 1615.87,465.01 1589.24,465.01 "/>
<g class="st0">
	<g>
		<defs>
			<rect id="SVGID_13_" x="1530.34" y="464.99" width="44.49" height="75.31"/>
		</defs>
		<clipPath id="SVGID_14_">
			<use xlink:href="#SVGID_13_"  style="overflow:visible;"/>
		</clipPath>
		<polyline class="st10" points="1574.84,510.79 1560.58,465 1530.34,465 1530.35,465.01 1557.99,540.31 1565.55,540.31 
			1565.56,540.31 		"/>
	</g>
</g>
<g class="st0">
	<g>
		<defs>
			<rect id="SVGID_15_" x="1735.29" y="509.05" width="80.77" height="33.27"/>
		</defs>
		<clipPath id="SVGID_16_">
			<use xlink:href="#SVGID_15_"  style="overflow:visible;"/>
		</clipPath>
		<path class="st11" d="M1776.75,542.32c23.9,0,37.01-10.08,39.31-27.36h-26.5c-0.86,4.32-3.89,8.06-11.81,8.06
			c-8.06,0-13.39-4.9-14.11-13.97h-28.36C1737.66,530.58,1754.48,542.32,1776.75,542.32"/>
	</g>
</g>
<path class="st9" d="M1815.92,502.15c0-2.8-0.2-5.44-0.57-7.92h-26.79h-24.77h-28.02c-0.51,2.65-0.78,5.43-0.78,8.35v1.15
	c0,1.84,0.11,3.61,0.3,5.33h28.36h52.27V502.15z"/>
<g class="st0">
	<g>
		<defs>
			<rect id="SVGID_17_" x="1735.77" y="462.98" width="79.57" height="31.24"/>
		</defs>
		<clipPath id="SVGID_18_">
			<use xlink:href="#SVGID_17_"  style="overflow:visible;"/>
		</clipPath>
		<path class="st12" d="M1776.75,481.27c7.63,0,11.52,4.9,11.81,12.96h26.79c-3.2-21.52-19.62-31.25-38.59-31.25
			c-20.29,0-37.22,11.73-40.98,31.25h28.02C1764.94,485.73,1769.84,481.27,1776.75,481.27"/>
	</g>
</g>
<g class="st0">
	<g>
		<defs>
			<rect id="SVGID_19_" x="1747.98" y="933.43" width="66.92" height="24.91"/>
		</defs>
		<clipPath id="SVGID_20_">
			<use xlink:href="#SVGID_19_"  style="overflow:visible;"/>
		</clipPath>
		<path class="st13" d="M1773.73,958.03c-0.2-0.47-0.3-0.98-0.3-1.56c0-2.88,2.3-5.18,7.49-5.18c5.18,0,7.63,2.59,8.5,7.06h25.49
			c-1.73-18.43-14.83-24.91-34.42-24.91c-15.57,0-28.78,5.86-32.5,18.09l14.62,3.69L1773.73,958.03z"/>
	</g>
</g>
<g class="st0">
	<g>
		<defs>
			<rect id="SVGID_21_" x="1746.21" y="986.71" width="69.72" height="26.06"/>
		</defs>
		<clipPath id="SVGID_22_">
			<use xlink:href="#SVGID_21_"  style="overflow:visible;"/>
		</clipPath>
		<path class="st14" d="M1789.42,989.16c0,3.17-2.45,5.33-7.92,5.33c-6.48,0-8.5-2.88-9.36-7.78h-25.92
			c0.43,16.99,13.39,26.06,35.42,26.06c17.79,0,30.56-5.53,34.29-18.17l-26.72-6.75C1789.35,988.26,1789.42,988.69,1789.42,989.16"
			/>
	</g>
</g>
<path class="st9" d="M1785.24,962.23c-6.97-0.72-10.52-1.85-11.51-4.2l-11.13-2.81l-14.62-3.69c-0.68,2.25-1.05,4.71-1.05,7.39
	c0,16.13,8.93,21.6,29.23,23.9c8.67,1.11,12.22,2.55,13.04,5.04l26.72,6.75c0.74-2.5,1.13-5.27,1.13-8.33
	C1817.06,970.01,1806.98,964.82,1785.24,962.23"/>
<polygon class="st5" points="1576.2,935.92 1547.83,935.92 1547.83,1011.23 1576.2,1011.23 1576.2,976.52 1576.2,951.18 "/>
<g class="st0">
	<g>
		<defs>
			<rect id="SVGID_23_" x="1576.19" y="934.9" width="24.19" height="41.62"/>
		</defs>
		<clipPath id="SVGID_24_">
			<use xlink:href="#SVGID_23_"  style="overflow:visible;"/>
		</clipPath>
		<path class="st15" d="M1576.2,951.18v25.34c0-10.8,8.49-15.98,24.19-15.12v-26.5C1589.16,934.77,1580.95,939.52,1576.2,951.18"/>
	</g>
</g>
</svg>
