<?xml version="1.0" encoding="utf-8"?>
<!-- Generator: Adobe Illustrator 23.1.1, SVG Export Plug-In . SVG Version: 6.00 Build 0)  -->
<svg version="1.1" id="Layer_1" xmlns="http://www.w3.org/2000/svg" xmlns:xlink="http://www.w3.org/1999/xlink" x="0px" y="0px"
	 viewBox="0 0 1920 1080" style="enable-background:new 0 0 1920 1080;" xml:space="preserve">
<style type="text/css">
	.st0{clip-path:url(#SVGID_2_);}
	.st1{clip-path:url(#SVGID_6_);}
	.st2{fill:#FFFFFF;}
	.st3{fill:#C9215A;}
	.st4{opacity:5.000310e-02;}
	.st5{clip-path:url(#SVGID_10_);fill:#3A3A3A;}
	.st6{clip-path:url(#SVGID_12_);fill:#3A3A3A;}
	.st7{fill:#0B9BBF;}
	.st8{clip-path:url(#SVGID_14_);fill:#3A3A3A;}
	.st9{clip-path:url(#SVGID_16_);fill:#3A3A3A;}
	.st10{clip-path:url(#SVGID_18_);fill:#3A3A3A;}
	.st11{clip-path:url(#SVGID_20_);fill:#3A3A3A;}
	.st12{clip-path:url(#SVGID_22_);fill:#3A3A3A;}
	.st13{clip-path:url(#SVGID_24_);fill:#3A3A3A;}
	.st14{clip-path:url(#SVGID_26_);fill:#3A3A3A;}
	.st15{clip-path:url(#SVGID_28_);fill:#3A3A3A;}
	.st16{clip-path:url(#SVGID_30_);fill:#3A3A3A;}
	.st17{fill:#EFD313;}
	.st18{clip-path:url(#SVGID_32_);fill:#3A3A3A;}
	.st19{clip-path:url(#SVGID_34_);fill:#3A3A3A;}
	.st20{clip-path:url(#SVGID_36_);fill:#3A3A3A;}
	.st21{clip-path:url(#SVGID_38_);fill:#3A3A3A;}
	.st22{clip-path:url(#SVGID_40_);fill:#3A3A3A;}
	.st23{clip-path:url(#SVGID_42_);fill:#3A3A3A;}
	.st24{clip-path:url(#SVGID_44_);fill:#3A3A3A;}
	.st25{clip-path:url(#SVGID_46_);fill:#3A3A3A;}
</style>
<g>
	<defs>
		<rect id="SVGID_1_" x="92.2" y="3909.9" width="845.6" height="728.8"/>
	</defs>
	<clipPath id="SVGID_2_">
		<use xlink:href="#SVGID_1_"  style="overflow:visible;"/>
	</clipPath>
	<g class="st0">
		<defs>
			<rect id="SVGID_3_" x="79.4" y="3896.7" width="871.3" height="790.6"/>
		</defs>
		<clipPath id="SVGID_4_">
			<use xlink:href="#SVGID_3_"  style="overflow:visible;"/>
		</clipPath>
		<g style="clip-path:url(#SVGID_4_);">
			
				<image style="overflow:visible;" width="886" height="804" xlink:href="BE23E58BEE6014FC.png"  transform="matrix(0.9834 0 0 0.9834 79.3838 3896.741)">
			</image>
		</g>
	</g>
</g>
<g>
	<defs>
		<rect id="SVGID_5_" x="1027.8" y="3909.9" width="845.6" height="728.8"/>
	</defs>
	<clipPath id="SVGID_6_">
		<use xlink:href="#SVGID_5_"  style="overflow:visible;"/>
	</clipPath>
	<g class="st1">
		<defs>
			<rect id="SVGID_7_" x="1019.9" y="3909.9" width="861.3" height="766.1"/>
		</defs>
		<clipPath id="SVGID_8_">
			<use xlink:href="#SVGID_7_"  style="overflow:visible;"/>
		</clipPath>
		<g transform="matrix(1 0 0 1 -6.103516e-05 0)" style="clip-path:url(#SVGID_8_);">
			
				<image style="overflow:visible;" width="742" height="660" xlink:href="BE23E58BEE6014FD.png"  transform="matrix(1.1608 0 0 1.1608 1019.9464 3909.9119)">
			</image>
		</g>
	</g>
</g>
<text transform="matrix(1 0 0 1 451.9939 4703.4854)"><tspan x="0" y="0" style="fill:#3A3A3A; font-family:'Graphik-Bold'; font-size:39.7095px;">Ga</tspan><tspan x="53.2" y="0" style="fill:#3A3A3A; font-family:'Graphik-Bold'; font-size:39.7095px;">r</tspan><tspan x="69.6" y="0" style="fill:#3A3A3A; font-family:'Graphik-Bold'; font-size:39.7095px;">bagema</tspan><tspan x="224.1" y="0" style="fill:#3A3A3A; font-family:'Graphik-Bold'; font-size:39.7095px;">n</tspan></text>
<text transform="matrix(1 0 0 1 1444.0837 4704.9473)"><tspan x="0" y="0" style="fill:#3A3A3A; font-family:'Graphik-Bold'; font-size:39.7095px;">A</tspan><tspan x="29.1" y="0" style="fill:#3A3A3A; font-family:'Graphik-Bold'; font-size:39.7095px;">v</tspan><tspan x="52.1" y="0" style="fill:#3A3A3A; font-family:'Graphik-Bold'; font-size:39.7095px;">i</tspan><tspan x="63.3" y="0" style="fill:#3A3A3A; font-family:'Graphik-Bold'; font-size:39.7095px;">jat</tspan><tspan x="111.9" y="0" style="fill:#3A3A3A; font-family:'Graphik-Bold'; font-size:39.7095px;">r</tspan><tspan x="128.3" y="0" style="fill:#3A3A3A; font-family:'Graphik-Bold'; font-size:39.7095px;">i</tspan><tspan x="139.5" y="0" style="fill:#3A3A3A; font-family:'Graphik-Bold'; font-size:39.7095px;">k</tspan></text>
<text transform="matrix(1 0 0 1 426.4841 5055.1758)"><tspan x="0" y="0" style="fill:#3A3A3A; font-family:'Graphik-Black'; font-size:78.8991px; letter-spacing:-1;">Let u</tspan><tspan x="183.8" y="0" style="fill:#3A3A3A; font-family:'Graphik-Black'; font-size:78.8991px; letter-spacing:-1;">s</tspan><tspan x="224" y="0" style="fill:#3A3A3A; font-family:'Graphik-Black'; font-size:78.8991px; letter-spacing:-1;"> k</tspan><tspan x="283" y="0" style="fill:#3A3A3A; font-family:'Graphik-Black'; font-size:78.8991px; letter-spacing:-1;">n</tspan><tspan x="331.5" y="0" style="fill:#3A3A3A; font-family:'Graphik-Black'; font-size:78.8991px; letter-spacing:-1;">ow</tspan><tspan x="446.2" y="0" style="fill:#3A3A3A; font-family:'Graphik-Black'; font-size:78.8991px; letter-spacing:-1;"> </tspan><tspan x="459.7" y="0" style="fill:#3A3A3A; font-family:'Graphik-Black'; font-size:78.8991px; letter-spacing:-1;">more a</tspan><tspan x="719.7" y="0" style="fill:#3A3A3A; font-family:'Graphik-Black'; font-size:78.8991px; letter-spacing:-1;">b</tspan><tspan x="769.6" y="0" style="fill:#3A3A3A; font-family:'Graphik-Black'; font-size:78.8991px; letter-spacing:-1;">out you</tspan><tspan x="1053.4" y="0" style="fill:#3A3A3A; font-family:'Graphik-Black'; font-size:78.8991px;"> </tspan></text>
<text transform="matrix(1 0 0 1 647.0862 5137.3887)"><tspan x="0" y="0" style="fill:#3A3A3A; font-family:'Graphik-Black'; font-size:78.8991px; letter-spacing:-1;">a</tspan><tspan x="45.1" y="0" style="fill:#3A3A3A; font-family:'Graphik-Black'; font-size:78.8991px; letter-spacing:-1;">n</tspan><tspan x="93.7" y="0" style="fill:#3A3A3A; font-family:'Graphik-Black'; font-size:78.8991px; letter-spacing:-1;">d your</tspan><tspan x="333.8" y="0" style="fill:#3A3A3A; font-family:'Graphik-Black'; font-size:78.8991px; letter-spacing:-1;"> </tspan><tspan x="347.3" y="0" style="fill:#3A3A3A; font-family:'Graphik-Black'; font-size:78.8991px; letter-spacing:-1;">startu</tspan><tspan x="575.2" y="0" style="fill:#3A3A3A; font-family:'Graphik-Black'; font-size:78.8991px;">p</tspan></text>
<text transform="matrix(1 0 0 1 1310.1384 5950.9746)"><tspan x="0" y="0" class="st2" style="font-family:'Graphik-Medium'; font-size:20px;">I</tspan><tspan x="5.9" y="0" class="st2" style="font-family:'Graphik-Medium'; font-size:20px;">m</tspan><tspan x="24" y="0" class="st2" style="font-family:'Graphik-Medium'; font-size:20px;">pr</tspan><tspan x="44" y="0" class="st2" style="font-family:'Graphik-Medium'; font-size:20px;">i</tspan><tspan x="49.2" y="0" class="st2" style="font-family:'Graphik-Medium'; font-size:20px;">n</tspan><tspan x="61.1" y="0" class="st2" style="font-family:'Graphik-Medium'; font-size:20px;">t</tspan></text>
<text transform="matrix(1 0 0 1 1495.5984 5950.9746)"><tspan x="0" y="0" class="st2" style="font-family:'Graphik-Medium'; font-size:20px;">D</tspan><tspan x="14" y="0" class="st2" style="font-family:'Graphik-Medium'; font-size:20px;">i</tspan><tspan x="19.2" y="0" class="st2" style="font-family:'Graphik-Medium'; font-size:20px;">s</tspan><tspan x="28.8" y="0" class="st2" style="font-family:'Graphik-Medium'; font-size:20px;">c</tspan><tspan x="40" y="0" class="st2" style="font-family:'Graphik-Medium'; font-size:20px;">l</tspan><tspan x="45.2" y="0" class="st2" style="font-family:'Graphik-Medium'; font-size:20px;">aim</tspan><tspan x="79.2" y="0" class="st2" style="font-family:'Graphik-Medium'; font-size:20px;">e</tspan><tspan x="90.5" y="0" class="st2" style="font-family:'Graphik-Medium'; font-size:20px;">r</tspan></text>
<text transform="matrix(1 0 0 1 1696.8386 5950.9746)"><tspan x="0" y="0" class="st2" style="font-family:'Graphik-Medium'; font-size:20px;">Pr</tspan><tspan x="19.6" y="0" class="st2" style="font-family:'Graphik-Medium'; font-size:20px;">i</tspan><tspan x="24.7" y="0" class="st2" style="font-family:'Graphik-Medium'; font-size:20px;">va</tspan><tspan x="46.5" y="0" class="st2" style="font-family:'Graphik-Medium'; font-size:20px;">c</tspan><tspan x="57.7" y="0" class="st2" style="font-family:'Graphik-Medium'; font-size:20px;">y P</tspan><tspan x="84.9" y="0" class="st2" style="font-family:'Graphik-Medium'; font-size:20px;">o</tspan><tspan x="96.8" y="0" class="st2" style="font-family:'Graphik-Medium'; font-size:20px;">l</tspan><tspan x="102" y="0" class="st2" style="font-family:'Graphik-Medium'; font-size:20px;">i</tspan><tspan x="107.1" y="0" class="st2" style="font-family:'Graphik-Medium'; font-size:20px;">c</tspan><tspan x="118.4" y="0" class="st2" style="font-family:'Graphik-Medium'; font-size:20px;">y</tspan></text>
<text transform="matrix(1 0 0 1 118.9182 5950.9746)"><tspan x="0" y="0" class="st2" style="font-family:'Graphik-Medium'; font-size:20px;">2020 by YY Ventures </tspan><tspan x="200.2" y="0" class="st2" style="font-family:'Graphik-Medium'; font-size:20px;">L</tspan><tspan x="210.9" y="0" class="st2" style="font-family:'Graphik-Medium'; font-size:20px;">i</tspan><tspan x="216.1" y="0" class="st2" style="font-family:'Graphik-Medium'; font-size:20px;">m</tspan><tspan x="234.2" y="0" class="st2" style="font-family:'Graphik-Medium'; font-size:20px;">ited</tspan><tspan x="270.2" y="0" class="st2" style="font-family:'Graphik-Medium'; font-size:20px;">.</tspan></text>
<text transform="matrix(1 0 0 1 394.1189 5950.9746)"><tspan x="0" y="0" class="st2" style="font-family:'Graphik-Light'; font-size:20px;"> All rights reserve</tspan><tspan x="150" y="0" class="st2" style="font-family:'Graphik-Light'; font-size:20px;">d</tspan><tspan x="162" y="0" class="st2" style="font-family:'Graphik-Light'; font-size:20px;">.</tspan></text>
<text transform="matrix(1 0 0 1 1574.5144 5622.1748)"><tspan x="0" y="0" class="st2" style="font-family:'Graphik-Medium'; font-size:24.602px;">Fa</tspan><tspan x="26.8" y="0" class="st2" style="font-family:'Graphik-Medium'; font-size:24.602px;">c</tspan><tspan x="40.6" y="0" class="st2" style="font-family:'Graphik-Medium'; font-size:24.602px;">e</tspan><tspan x="54.5" y="0" class="st2" style="font-family:'Graphik-Medium'; font-size:24.602px;">bo</tspan><tspan x="84.4" y="0" class="st2" style="font-family:'Graphik-Medium'; font-size:24.602px;">o</tspan><tspan x="99.1" y="0" class="st2" style="font-family:'Graphik-Medium'; font-size:24.602px;">k</tspan></text>
<text transform="matrix(1 0 0 1 1574.5144 5666.9551)"><tspan x="0" y="0" class="st2" style="font-family:'Graphik-Medium'; font-size:24.602px;">Insta</tspan><tspan x="55.8" y="0" class="st2" style="font-family:'Graphik-Medium'; font-size:24.602px;">g</tspan><tspan x="71" y="0" class="st2" style="font-family:'Graphik-Medium'; font-size:24.602px;">ra</tspan><tspan x="93.8" y="0" class="st2" style="font-family:'Graphik-Medium'; font-size:24.602px;">m</tspan></text>
<text transform="matrix(1 0 0 1 1574.5144 5712.8457)"><tspan x="0" y="0" class="st2" style="font-family:'Graphik-Medium'; font-size:24.602px;">Linke</tspan><tspan x="61.1" y="0" class="st2" style="font-family:'Graphik-Medium'; font-size:24.602px;">d</tspan><tspan x="76.4" y="0" class="st2" style="font-family:'Graphik-Medium'; font-size:24.602px;">i</tspan><tspan x="82.7" y="0" class="st2" style="font-family:'Graphik-Medium'; font-size:24.602px;">n</tspan></text>
<text transform="matrix(1 0 0 1 1574.5154 5757.626)"><tspan x="0" y="0" class="st2" style="font-family:'Graphik-Medium'; font-size:24.602px;">Vi</tspan><tspan x="22.8" y="0" class="st2" style="font-family:'Graphik-Medium'; font-size:24.602px;">m</tspan><tspan x="45.1" y="0" class="st2" style="font-family:'Graphik-Medium'; font-size:24.602px;">e</tspan><tspan x="59" y="0" class="st2" style="font-family:'Graphik-Medium'; font-size:24.602px;">o</tspan></text>
<text transform="matrix(1 0 0 1 1081.531 5622.1748)"><tspan x="0" y="0" class="st2" style="font-family:'Graphik-Medium'; font-size:24.602px;">in</tspan><tspan x="21" y="0" class="st2" style="font-family:'Graphik-Medium'; font-size:24.602px;">f</tspan><tspan x="29.5" y="0" class="st2" style="font-family:'Graphik-Medium'; font-size:24.602px;">o@</tspan><tspan x="66.5" y="0" class="st2" style="font-family:'Graphik-Medium'; font-size:24.602px;">y</tspan><tspan x="79.8" y="0" class="st2" style="font-family:'Graphik-Medium'; font-size:24.602px;">y.vent</tspan><tspan x="150.6" y="0" class="st2" style="font-family:'Graphik-Medium'; font-size:24.602px;">u</tspan><tspan x="165.1" y="0" class="st2" style="font-family:'Graphik-Medium'; font-size:24.602px;">re</tspan><tspan x="188.5" y="0" class="st2" style="font-family:'Graphik-Medium'; font-size:24.602px;">s</tspan></text>
<text transform="matrix(1 0 0 1 1081.531 5712.8574)"><tspan x="0" y="0" class="st2" style="font-family:'Graphik-Medium'; font-size:24.602px;">9th </tspan><tspan x="44.4" y="0" class="st2" style="font-family:'Graphik-Medium'; font-size:24.602px;">f</tspan><tspan x="53" y="0" class="st2" style="font-family:'Graphik-Medium'; font-size:24.602px;">loor, </tspan><tspan x="110.6" y="0" class="st2" style="font-family:'Graphik-Medium'; font-size:24.602px;">G</tspan><tspan x="129.3" y="0" class="st2" style="font-family:'Graphik-Medium'; font-size:24.602px;">ra</tspan><tspan x="152.1" y="0" class="st2" style="font-family:'Graphik-Medium'; font-size:24.602px;">m</tspan><tspan x="174.3" y="0" class="st2" style="font-family:'Graphik-Medium'; font-size:24.602px;">een</tspan><tspan x="216.9" y="0" class="st2" style="font-family:'Graphik-Medium'; font-size:24.602px;"> </tspan></text>
<text transform="matrix(1 0 0 1 1081.531 5742.3799)"><tspan x="0" y="0" class="st2" style="font-family:'Graphik-Medium'; font-size:24.602px;">Tele</tspan><tspan x="48.3" y="0" class="st2" style="font-family:'Graphik-Medium'; font-size:24.602px;">c</tspan><tspan x="62.1" y="0" class="st2" style="font-family:'Graphik-Medium'; font-size:24.602px;">o</tspan><tspan x="76.8" y="0" class="st2" style="font-family:'Graphik-Medium'; font-size:24.602px;">m</tspan><tspan x="99" y="0" class="st2" style="font-family:'Graphik-Medium'; font-size:24.602px;"> Bh</tspan><tspan x="134.7" y="0" class="st2" style="font-family:'Graphik-Medium'; font-size:24.602px;">ab</tspan><tspan x="163.3" y="0" class="st2" style="font-family:'Graphik-Medium'; font-size:24.602px;">an, Mir</tspan><tspan x="241" y="0" class="st2" style="font-family:'Graphik-Medium'; font-size:24.602px;">pu</tspan><tspan x="270.8" y="0" class="st2" style="font-family:'Graphik-Medium'; font-size:24.602px;">r </tspan><tspan x="285.8" y="0" class="st2" style="font-family:'Graphik-Medium'; font-size:24.602px;">1</tspan></text>
<text transform="matrix(1 0 0 1 1081.531 5771.9023)"><tspan x="0" y="0" class="st2" style="font-family:'Graphik-Medium'; font-size:24.602px;">Dha</tspan><tspan x="45.2" y="0" class="st2" style="font-family:'Graphik-Medium'; font-size:24.602px;">k</tspan><tspan x="58.2" y="0" class="st2" style="font-family:'Graphik-Medium'; font-size:24.602px;">a, B</tspan><tspan x="99.4" y="0" class="st2" style="font-family:'Graphik-Medium'; font-size:24.602px;">a</tspan><tspan x="112.7" y="0" class="st2" style="font-family:'Graphik-Medium'; font-size:24.602px;">n</tspan><tspan x="127.4" y="0" class="st2" style="font-family:'Graphik-Medium'; font-size:24.602px;">g</tspan><tspan x="142.6" y="0" class="st2" style="font-family:'Graphik-Medium'; font-size:24.602px;">la</tspan><tspan x="162.3" y="0" class="st2" style="font-family:'Graphik-Medium'; font-size:24.602px;">d</tspan><tspan x="177.5" y="0" class="st2" style="font-family:'Graphik-Medium'; font-size:24.602px;">es</tspan><tspan x="203.3" y="0" class="st2" style="font-family:'Graphik-Medium'; font-size:24.602px;">h</tspan></text>
<polygon class="st2" points="112.5,5465 98.1,5483.1 100.9,5486.7 115.4,5468.6 "/>
<polygon class="st2" points="118.2,5472.2 121.1,5475.8 112.5,5486.7 109.6,5483 "/>
<polygon class="st2" points="129.8,5479.4 132.7,5475.8 113.8,5452.1 110.9,5455.7 "/>
<polygon class="st2" points="126.9,5454.1 124,5457.7 112.5,5443.3 115.4,5439.6 "/>
<polygon class="st2" points="126.9,5446.9 129.8,5450.5 146.3,5429.8 143.4,5426.2 "/>
<polygon class="st2" points="126.9,5461.4 129.8,5465 146.3,5444.3 143.4,5440.7 "/>
<text transform="matrix(1 0 0 1 97.3523 5654.1436)"><tspan x="0" y="0" class="st2" style="font-family:'Graphik-Medium'; font-size:60.1588px;">We are the ‘</tspan><tspan x="328.4" y="0" class="st2" style="font-family:'Graphik-Medium'; font-size:60.1588px;">w</tspan><tspan x="376.5" y="0" class="st2" style="font-family:'Graphik-Medium'; font-size:60.1588px;">e</tspan><tspan x="410.6" y="0" class="st2" style="font-family:'Graphik-Medium'; font-size:60.1588px;">a</tspan><tspan x="443.2" y="0" class="st2" style="font-family:'Graphik-Medium'; font-size:60.1588px;">vers</tspan><tspan x="562.1" y="0" class="st2" style="font-family:'Graphik-Medium'; font-size:60.1588px;">’</tspan><tspan x="577.9" y="0" class="st2" style="font-family:'Graphik-Medium'; font-size:60.1588px;"> </tspan></text>
<text transform="matrix(1 0 0 1 97.3523 5716.8291)"><tspan x="0" y="0" class="st2" style="font-family:'Graphik-Medium'; font-size:60.1588px;">o</tspan><tspan x="36" y="0" class="st2" style="font-family:'Graphik-Medium'; font-size:60.1588px;">f</tspan><tspan x="56.9" y="0" class="st2" style="font-family:'Graphik-Medium'; font-size:60.1588px;"> t</tspan><tspan x="91.9" y="0" class="st2" style="font-family:'Graphik-Medium'; font-size:60.1588px;">o</tspan><tspan x="127.8" y="0" class="st2" style="font-family:'Graphik-Medium'; font-size:60.1588px;">day&apos;s so</tspan><tspan x="350.5" y="0" class="st2" style="font-family:'Graphik-Medium'; font-size:60.1588px;">ci</tspan><tspan x="399.7" y="0" class="st2" style="font-family:'Graphik-Medium'; font-size:60.1588px;">a</tspan><tspan x="432.4" y="0" class="st2" style="font-family:'Graphik-Medium'; font-size:60.1588px;">l</tspan><tspan x="447.8" y="0" class="st2" style="font-family:'Graphik-Medium'; font-size:60.1588px;"> </tspan></text>
<text transform="matrix(1 0 0 1 97.3523 5779.5146)"><tspan x="0" y="0" class="st2" style="font-family:'Graphik-Medium'; font-size:60.1588px;">b</tspan><tspan x="37.3" y="0" class="st2" style="font-family:'Graphik-Medium'; font-size:60.1588px;">u</tspan><tspan x="72.9" y="0" class="st2" style="font-family:'Graphik-Medium'; font-size:60.1588px;">siness wor</tspan><tspan x="365.9" y="0" class="st2" style="font-family:'Graphik-Medium'; font-size:60.1588px;">l</tspan><tspan x="381.3" y="0" class="st2" style="font-family:'Graphik-Medium'; font-size:60.1588px;">d</tspan></text>
<g>
	<g>
		<path class="st3" d="M1822.2,463.7c0-2-0.1-3.9-0.4-5.7H1793c0.3,1.8,0.4,3.8,0.4,6v1c0,2.6-0.2,5-0.6,7.1h28.9
			c0.4-2.3,0.6-4.7,0.6-7.2V463.7z"/>
		<g class="st4">
			<g>
				<defs>
					<rect id="SVGID_9_" x="1738.9" y="424.9" width="83" height="33"/>
				</defs>
				<clipPath id="SVGID_10_">
					<use xlink:href="#SVGID_9_"  style="overflow:visible;"/>
				</clipPath>
				<path class="st5" d="M1780.5,445.8c7.2,0,11.3,4.2,12.5,12.1h28.9c-2.7-20.7-19.8-33-41.4-33c-21.6,0-38.7,12.4-41.6,33h28.6
					C1768.8,449.9,1773.3,445.8,1780.5,445.8"/>
			</g>
		</g>
		<path class="st3" d="M1767.1,464.7v-1.2c0-2,0.2-3.9,0.4-5.6h-28.6c-0.3,2.1-0.4,4.2-0.4,6.4v1.2c0,2.3,0.2,4.4,0.5,6.5h28.9
			C1767.3,469.9,1767.1,467.4,1767.1,464.7"/>
		<g class="st4">
			<g>
				<defs>
					<rect id="SVGID_11_" x="1738.9" y="472" width="82.8" height="32.1"/>
				</defs>
				<clipPath id="SVGID_12_">
					<use xlink:href="#SVGID_11_"  style="overflow:visible;"/>
				</clipPath>
				<path class="st6" d="M1780.5,483.2c-7,0-11.2-3.8-12.7-11.2h-28.9c3,20.7,20.1,32.1,41.4,32.1c21.1,0,38.1-11.7,41.3-32.1h-28.9
					C1791.3,479.4,1787.2,483.2,1780.5,483.2"/>
			</g>
		</g>
		<path class="st7" d="M1821.3,957.7c0-2-0.1-3.9-0.4-5.7h-28.9c0.3,1.8,0.4,3.8,0.4,6v1c0,2.6-0.2,5-0.6,7.1h28.9
			c0.4-2.3,0.6-4.7,0.6-7.2V957.7z"/>
		<g class="st4">
			<g>
				<defs>
					<rect id="SVGID_13_" x="1738" y="918.9" width="83" height="33"/>
				</defs>
				<clipPath id="SVGID_14_">
					<use xlink:href="#SVGID_13_"  style="overflow:visible;"/>
				</clipPath>
				<path class="st8" d="M1779.6,939.8c7.2,0,11.3,4.2,12.5,12.1h28.9c-2.7-20.7-19.8-33-41.4-33c-21.6,0-38.7,12.4-41.6,33h28.6
					C1768,943.9,1772.4,939.8,1779.6,939.8"/>
			</g>
		</g>
		<path class="st7" d="M1766.2,958.7v-1.2c0-2,0.1-3.9,0.4-5.6H1738c-0.3,2.1-0.4,4.2-0.4,6.4v1.2c0,2.3,0.2,4.4,0.5,6.5h28.9
			C1766.4,963.9,1766.2,961.4,1766.2,958.7"/>
		<g class="st4">
			<g>
				<defs>
					<rect id="SVGID_15_" x="1738" y="966" width="82.8" height="32.1"/>
				</defs>
				<clipPath id="SVGID_16_">
					<use xlink:href="#SVGID_15_"  style="overflow:visible;"/>
				</clipPath>
				<path class="st9" d="M1779.6,977.2c-7,0-11.2-3.8-12.7-11.2H1738c3,20.7,20.1,32.1,41.5,32.1c21.1,0,38.1-11.7,41.3-32.1h-28.9
					C1790.4,973.4,1786.3,977.2,1779.6,977.2"/>
			</g>
		</g>
	</g>
	<rect x="1588.9" y="922" class="st3" width="28.2" height="75.3"/>
	<g class="st4">
		<g>
			<defs>
				<rect id="SVGID_17_" x="1587.7" y="883.4" width="30.7" height="28.7"/>
			</defs>
			<clipPath id="SVGID_18_">
				<use xlink:href="#SVGID_17_"  style="overflow:visible;"/>
			</clipPath>
			<path class="st10" d="M1587.7,897.8c0-8.4,6.6-14.4,15.4-14.4c8.6,0,15.3,6,15.3,14.4c0,8.2-6.6,14.3-15.3,14.3
				C1594.3,912.1,1587.7,906.1,1587.7,897.8"/>
		</g>
	</g>
	<g class="st4">
		<g>
			<defs>
				<rect id="SVGID_19_" x="947.7" y="959.1" width="28.2" height="38.2"/>
			</defs>
			<clipPath id="SVGID_20_">
				<use xlink:href="#SVGID_19_"  style="overflow:visible;"/>
			</clipPath>
			<rect x="947.7" y="959.1" class="st11" width="28.2" height="38.2"/>
		</g>
	</g>
	<rect x="947.7" y="889.3" class="st7" width="28.2" height="69.8"/>
	<g class="st4">
		<g>
			<defs>
				<rect id="SVGID_21_" x="1562.7" y="443.4" width="9.2" height="19"/>
			</defs>
			<clipPath id="SVGID_22_">
				<use xlink:href="#SVGID_21_"  style="overflow:visible;"/>
			</clipPath>
			<rect x="1562.7" y="443.4" class="st12" width="9.2" height="19"/>
		</g>
	</g>
	<g class="st4">
		<g>
			<defs>
				<rect id="SVGID_23_" x="1600.3" y="443.4" width="14.7" height="19"/>
			</defs>
			<clipPath id="SVGID_24_">
				<use xlink:href="#SVGID_23_"  style="overflow:visible;"/>
			</clipPath>
			<rect x="1600.3" y="443.4" class="st13" width="14.7" height="19"/>
		</g>
	</g>
	<g class="st4">
		<g>
			<defs>
				<rect id="SVGID_25_" x="1600.3" y="437.3" width="0" height="0.7"/>
			</defs>
			<clipPath id="SVGID_26_">
				<use xlink:href="#SVGID_25_"  style="overflow:visible;"/>
			</clipPath>
			<path class="st14" d="M1600.3,438c0-0.2,0-0.5,0-0.7h0V438z"/>
		</g>
	</g>
	<g class="st4">
		<g>
			<defs>
				<rect id="SVGID_27_" x="1600.3" y="409.6" width="14.8" height="27.7"/>
			</defs>
			<clipPath id="SVGID_28_">
				<use xlink:href="#SVGID_27_"  style="overflow:visible;"/>
			</clipPath>
			<path class="st15" d="M1600.3,437.3c0.3-3.8,2.7-6.7,8-6.7c2.9,0,5,0.4,6.8,0.9v-20.3c-3.6-1-7.3-1.6-12.2-1.6
				c-0.9,0-1.7,0-2.6,0.1L1600.3,437.3L1600.3,437.3z"/>
		</g>
	</g>
	<g class="st4">
		<g>
			<defs>
				<rect id="SVGID_29_" x="1571.9" y="409.7" width="28.3" height="27.6"/>
			</defs>
			<clipPath id="SVGID_30_">
				<use xlink:href="#SVGID_29_"  style="overflow:visible;"/>
			</clipPath>
			<path class="st16" d="M1600.3,409.7c-16.7,0.8-28.1,9.5-28.4,27.6h28.4V409.7z"/>
		</g>
	</g>
	<path class="st17" d="M1600.3,438v-0.7h-28.4c0,0.2,0,0.4,0,0.5v5.6v19v56.3h28.4v-56.3v-19V438z"/>
	<path class="st17" d="M1206,40.2V39c0-2.6,0.2-4.9,0.6-6.9v-19V2.2h-23.1v100.4h23.1V66.7V47.2C1206.2,45.2,1206,42.8,1206,40.2"/>
	<g class="st4">
		<g>
			<defs>
				<rect id="SVGID_31_" x="1206.6" y="0.2" width="54.6" height="79.2"/>
			</defs>
			<clipPath id="SVGID_32_">
				<use xlink:href="#SVGID_31_"  style="overflow:visible;"/>
			</clipPath>
			<path class="st18" d="M1229.7,0.2c-11.4,0-18.9,5.9-23,13v19c1.6-7.1,5.9-10.9,12.4-10.9c8.5,0,13.4,5.8,13.4,17.9v1.2
				c0,11.5-4.8,17.6-13.2,17.6c-6.7,0-10.9-3.5-12.5-10.5v19.5c3.7,7.3,11.8,12.7,22.9,12.7c17.1,0,31.7-12.5,31.7-38.9v-1.2
				C1261.2,13,1246.8,0.2,1229.7,0.2"/>
		</g>
	</g>
	<path class="st7" d="M730.7,307.8c0-2-0.1-3.9-0.4-5.7h-28.9c0.3,1.8,0.4,3.8,0.4,6v1c0,2.6-0.2,5-0.6,7.1h28.9
		c0.4-2.3,0.6-4.7,0.6-7.2V307.8z"/>
	<g class="st4">
		<g>
			<defs>
				<rect id="SVGID_33_" x="647.3" y="269" width="83" height="33"/>
			</defs>
			<clipPath id="SVGID_34_">
				<use xlink:href="#SVGID_33_"  style="overflow:visible;"/>
			</clipPath>
			<path class="st19" d="M688.9,289.9c7.2,0,11.3,4.2,12.5,12.1h28.9c-2.7-20.7-19.8-33-41.4-33c-21.6,0-38.7,12.4-41.6,33h28.6
				C677.3,294,681.8,289.9,688.9,289.9"/>
		</g>
	</g>
	<path class="st7" d="M675.5,308.8v-1.2c0-2,0.2-3.9,0.4-5.6h-28.6c-0.3,2.1-0.4,4.2-0.4,6.4v1.2c0,2.3,0.2,4.4,0.5,6.5h28.9
		C675.7,314,675.5,311.5,675.5,308.8"/>
	<g class="st4">
		<g>
			<defs>
				<rect id="SVGID_35_" x="647.3" y="316.1" width="82.8" height="32.1"/>
			</defs>
			<clipPath id="SVGID_36_">
				<use xlink:href="#SVGID_35_"  style="overflow:visible;"/>
			</clipPath>
			<path class="st20" d="M688.9,327.3c-7,0-11.2-3.8-12.7-11.2h-28.9c3,20.7,20.1,32.1,41.4,32.1c21.1,0,38.1-11.7,41.3-32.1h-28.9
				C699.7,323.5,695.6,327.3,688.9,327.3"/>
		</g>
	</g>
	<polygon class="st3" points="954.3,271.9 925.9,271.9 925.9,347.3 954.3,347.3 954.3,312.6 954.3,287.2 	"/>
	<g class="st4">
		<g>
			<defs>
				<rect id="SVGID_37_" x="954.3" y="270.9" width="24.2" height="41.6"/>
			</defs>
			<clipPath id="SVGID_38_">
				<use xlink:href="#SVGID_37_"  style="overflow:visible;"/>
			</clipPath>
			<path class="st21" d="M954.3,287.2v25.3c0-10.8,8.5-16,24.2-15.1v-26.5C967.3,270.8,959.1,275.5,954.3,287.2"/>
		</g>
	</g>
	<polygon class="st7" points="1230.9,307.3 1230.9,288.3 1230.9,272.9 1202.5,272.9 1202.5,288.3 1202.5,307.3 1202.5,331.8 
		1230.9,331.8 	"/>
	<g class="st4">
		<g>
			<defs>
				<rect id="SVGID_39_" x="1193.7" y="288.3" width="8.8" height="19"/>
			</defs>
			<clipPath id="SVGID_40_">
				<use xlink:href="#SVGID_39_"  style="overflow:visible;"/>
			</clipPath>
			<rect x="1193.7" y="288.3" class="st22" width="8.8" height="19"/>
		</g>
	</g>
	<g class="st4">
		<g>
			<defs>
				<rect id="SVGID_41_" x="1230.9" y="288.3" width="14.4" height="19"/>
			</defs>
			<clipPath id="SVGID_42_">
				<use xlink:href="#SVGID_41_"  style="overflow:visible;"/>
			</clipPath>
			<rect x="1230.9" y="288.3" class="st23" width="14.4" height="19"/>
		</g>
	</g>
	<g class="st4">
		<g>
			<defs>
				<rect id="SVGID_43_" x="1230.9" y="335.7" width="14.4" height="29.6"/>
			</defs>
			<clipPath id="SVGID_44_">
				<use xlink:href="#SVGID_43_"  style="overflow:visible;"/>
			</clipPath>
			<path class="st24" d="M1230.9,335.7v29.7c5.9-0.1,11.1-1.2,14.4-2.1v-21.3c-2.4,0.9-4.5,1.2-7.1,1.2
				C1233.6,343,1230.9,340.8,1230.9,335.7"/>
		</g>
	</g>
	<g class="st4">
		<g>
			<defs>
				<rect id="SVGID_45_" x="1202.5" y="331.8" width="28.4" height="33.5"/>
			</defs>
			<clipPath id="SVGID_46_">
				<use xlink:href="#SVGID_45_"  style="overflow:visible;"/>
			</clipPath>
			<path class="st25" d="M1230.9,331.8h-28.4v6.6c0,18.9,10.1,26.9,27.8,26.9c0.2,0,0.4,0,0.6,0v-29.6V331.8z"/>
		</g>
	</g>
</g>
</svg>
