<?xml version="1.0" encoding="utf-8"?>
<!-- Generator: Adobe Illustrator 24.0.1, SVG Export Plug-In . SVG Version: 6.00 Build 0)  -->
<svg version="1.1" id="Layer_1" xmlns="http://www.w3.org/2000/svg" xmlns:xlink="http://www.w3.org/1999/xlink" x="0px" y="0px"
	 viewBox="0 0 1000 1000" style="enable-background:new 0 0 1000 1000;" xml:space="preserve">
<style type="text/css">
	.st0{fill:#3972A9;}
</style>
<g>
	<path class="st0" d="M159.62,508.41l-1.04-0.84c-6.13-4.84-11.49-9.81-15.9-14.81c-4.18-4.69-7.62-9.48-10.24-14.24
		c-4.72-8.58-6.98-17.37-6.68-26.12c0.25-6.47,1.86-12.99,4.85-19.29c2.37-5.05,5.61-10,9.59-14.72
		c6.61-7.8,12.96-12.29,13.67-12.78l0.94-0.62l0.92,0.65c20.33,14.17,31.03,30.29,31.84,47.96c0.3,6.91-0.92,14.07-3.66,21.26
		c-2.17,5.71-5.31,11.44-9.31,17.06c-6.49,9.14-13.2,14.96-13.94,15.6L159.62,508.41z M154.79,406.91l-0.03,0.03
		c-0.7,0.45-6.89,4.83-13.35,12.45c-3.91,4.61-7.07,9.45-9.39,14.38c-2.91,6.14-4.47,12.42-4.7,18.7c-0.3,8.44,1.9,16.96,6.46,25.31
		c2.57,4.65,5.96,9.36,10.03,13.95c4.39,4.93,9.67,9.85,15.72,14.65l0.05,0.02l0.05-0.02c0.72-0.66,7.29-6.35,13.66-15.32
		c3.93-5.54,7-11.14,9.13-16.76c2.67-6.98,3.86-13.91,3.57-20.62c-0.79-17.16-11.27-32.88-31.17-46.74L154.79,406.91z
		 M159.59,506.21l-0.52-0.44c-21.58-17.23-32.21-35.15-31.58-53.27c0.48-14.15,7.87-25.72,13.99-32.95
		c5.62-6.66,11.26-10.96,12.85-12.14l0.46-0.32l0.45,0.3c19.54,13.74,29.84,29.31,30.61,46.28c0.68,15.14-6.49,28.62-12.62,37.24
		c-5.63,7.92-11.48,13.37-13.13,14.85L159.59,506.21z M154.81,409.01c-2,1.48-7.07,5.56-12.14,11.54
		c-5.95,7.05-13.18,18.32-13.63,31.98c-0.62,17.48,9.64,34.84,30.49,51.63c2.09-1.94,7.36-7,12.42-14.13
		c6.01-8.44,13.02-21.6,12.36-36.3C183.54,437.42,173.62,422.38,154.81,409.01"/>
	<path class="st0" d="M157.85,427.57l-16.03-9.28l1.65-2.84l16.02,9.32L157.85,427.57z M143.95,417.71l13.34,7.74l0.07-0.14
		l-13.34-7.72L143.95,417.71z"/>
	<path class="st0" d="M160.44,595l-3.28-0.08l0.01-0.78c1.47-70.88,1.58-122.84,0.39-154.45c-0.44-11.47-1.06-20.04-1.82-25.52
		c-0.68-5.01-1.31-5.89-1.33-5.92l0.11-0.09l-1.62-0.73l0.33-0.7c0.39-0.87,1.31-1.59,2.44-1.36c1.5,0.32,2.31,2.06,3.07,6.64
		c0.83,5.02,1.48,13.22,1.97,24.37c1.34,31.25,1.26,84.35-0.24,157.83L160.44,595z M158.75,593.38l0.14,0.02
		c1.49-73.05,1.58-125.84,0.23-156.94c-0.48-11.11-1.13-19.27-1.94-24.18c-0.3-1.85-0.62-3.21-0.95-4.12l-0.13,0.09
		c0.51,1.38,0.91,3.74,1.18,5.7c0.76,5.53,1.38,14.17,1.82,25.67C160.3,471.14,160.18,522.88,158.75,593.38 M155.23,407.03
		c-0.11,0-0.16,0.05-0.19,0.07l0.21,0.29l0.24-0.24C155.39,407.06,155.3,407.03,155.23,407.03"/>
	<path class="st0" d="M159.72,476.92l-0.31-0.12l-32.59-13.66l1.27-3.01l0.72,0.29l30.88,12.96l25.54-11.39l1.33,2.98L159.72,476.92
		z M128.84,462.3l30.86,12.93l24.8-11.02l-0.07-0.15l-24.73,11.02l-0.31-0.14l-30.48-12.78L128.84,462.3z"/>
	<path class="st0" d="M159.53,464.6l-0.32-0.11l-33.65-11.02l1.01-3.1l32.65,10.68l25.7-13.37l1.51,2.88L159.53,464.6z
		 M127.53,452.48l31.86,10.44l24.94-12.99l-0.07-0.14l-24.88,12.94l-0.33-0.09l-31.47-10.32L127.53,452.48z"/>
	<path class="st0" d="M159.17,455.08l-31.49-14.01l1.33-2.99l29.76,13.25l22.19-16.09l1.9,2.66L159.17,455.08z M129.73,440.27
		l29.24,13.02l21.71-15.77l-0.08-0.13l-21.65,15.71l-29.15-12.99L129.73,440.27z"/>
	<path class="st0" d="M158.17,439.02l-25.06-8.49l1.06-3.08l23.5,7.97l16.77-11.48l1.86,2.7L158.17,439.02z M135.1,429.56
		l22.85,7.75l16.2-11.08l-0.09-0.12l-16.14,11.02l-22.77-7.72L135.1,429.56z"/>
	<path class="st0" d="M158.21,427.14l-1.5-2.93l12.64-6.44l1.49,2.9L158.21,427.14z M158.81,424.92l0.08,0.14l9.87-5.02l-0.08-0.15
		L158.81,424.92z"/>
	<path class="st0" d="M159.86,488.17L131,476.98l1.18-3.05l0.72,0.28l26.81,10.41l21.8-10.44l1.41,2.95L159.86,488.17z
		 M133.03,476.07l26.77,10.41l21.07-10.08l-0.07-0.15l-21,10.06l-26.71-10.36L133.03,476.07z"/>
	<path class="st0" d="M160.07,496.89l-0.26-0.03l-15.92-2.52l0.51-3.22l15.11,2.37l16.25-8.49l1.53,2.85L160.07,496.89z
		 M145.66,493.04l14.13,2.23l15.38-8.07l-0.07-0.12l-15.33,8.05l-0.27-0.06l-13.82-2.17L145.66,493.04z"/>
	<path class="st0" d="M136.18,539.56c-5.2,0-10.6-1.14-15.57-3.28c-4.77-2.08-9.31-5.08-13.5-8.96c-2.43-2.24-4.75-4.73-6.87-7.38
		c-1.09-1.33-2.17-2.8-3.38-4.55c-1.82-2.61-3.06-5.56-3.79-9.01c-0.59-2.75-0.86-5.8-0.85-9.56c0.02-5.28,0.56-10.65,1.61-16.03
		c1.01-5.17,2.5-10.38,4.44-15.43c1.86-4.79,4.37-11.35,7.54-16.63c-1.25-1.01-2.01-1.53-2.07-1.58l-0.65-0.47l1.91-2.64l0.64,0.45
		c0.37,0.24,3.67,2.67,8.45,7.01c4.52,4.12,11.23,10.79,17.5,19.27c7.07,9.56,12.14,19.37,15.09,29.22
		c1.75,5.86,2.75,11.8,2.99,17.61c0.24,6.42-0.45,12.88-2.02,19.2c-0.36,1.36-1.89,1.85-4.43,2.23c-1.59,0.21-3.33,0.35-3.98,0.41
		l-0.23,0.02C138.08,539.53,137.12,539.56,136.18,539.56 M105.26,446.35c0.47,0.34,1.18,0.89,2.04,1.59l0.54,0.44l-0.36,0.56
		c-3.24,5.28-5.87,12.05-7.79,16.97c-1.9,4.96-3.38,10.09-4.35,15.17c-1.04,5.28-1.56,10.57-1.58,15.74
		c-0.02,3.65,0.25,6.59,0.8,9.22c0.71,3.23,1.87,6.01,3.56,8.44c1.2,1.75,2.25,3.16,3.29,4.47c2.1,2.6,4.36,5.04,6.73,7.21
		c4.08,3.77,8.49,6.68,13.08,8.67c5.64,2.46,11.79,3.53,17.66,3.07l0.23-0.01c0.64-0.06,2.34-0.17,3.88-0.4
		c0.73-0.12,2.97-0.44,3.12-1.08c1.58-6.17,2.24-12.48,1.98-18.74c-0.21-5.69-1.2-11.48-2.91-17.23
		c-2.89-9.66-7.89-19.34-14.85-28.74c-6.2-8.37-12.84-14.98-17.3-19.05c-3.68-3.34-6.48-5.51-7.69-6.41L105.26,446.35z
		 M136.19,537.85c-5.01,0-10.1-1.07-14.9-3.15c-4.6-2-8.97-4.9-13.04-8.66c-2.35-2.17-4.6-4.59-6.7-7.22
		c-1.05-1.26-2.09-2.68-3.29-4.42c-3.86-5.53-4.35-12-4.33-17.57c0.02-10.3,2.02-20.68,5.91-30.86c1.88-4.85,4.47-11.52,7.64-16.73
		l0.48-0.78l0.67,0.56c1.23,1.01,2.68,2.27,4.29,3.73c4.49,4.09,11.11,10.65,17.29,19.02c10.87,14.73,22.45,37.84,15.79,64.38
		l-0.08,0.37l-0.32,0.15c-0.49,0.26-1.51,0.52-3.03,0.7c-1.28,0.18-2.58,0.28-3.27,0.34l-0.43,0.04
		C137.99,537.82,137.09,537.85,136.19,537.85 M108.36,450.84c-2.9,4.97-5.29,11.16-7.05,15.69c-3.83,10.01-5.81,20.21-5.83,30.31
		c-0.03,5.34,0.45,11.51,4.07,16.68c1.17,1.71,2.19,3.08,3.22,4.35c2.05,2.55,4.24,4.93,6.55,7.06c3.92,3.62,8.17,6.42,12.58,8.35
		c5.44,2.35,11.3,3.36,16.86,2.91l0.43-0.03c0.68-0.06,1.93-0.17,3.18-0.34c1.24-0.17,1.9-0.34,2.24-0.41
		c6.3-25.82-5.01-48.32-15.64-62.72c-6.1-8.22-12.65-14.76-17.07-18.78C110.61,452.73,109.41,451.72,108.36,450.84"/>
	<path class="st0" d="M109.43,473.99l-11.55-4.63l1.21-3.02l9.06,3.64l8.8-13.66l2.75,1.75L109.43,473.99z M99.91,468.51l8.89,3.57
		l8.76-13.55l-0.14-0.06l-8.66,13.43l-8.8-3.54L99.91,468.51z"/>
	<path class="st0" d="M112.36,486c-2.95,0-6.53-1.16-10.67-3.51c-3.63-2.01-6.36-4.26-6.47-4.33l-0.6-0.49l2.06-2.55l0.61,0.5
		c0.1,0.06,9.68,7.66,15.8,7.1c2.3-2.9,9.04-11.4,12.22-15.85l0.47-0.64l2.66,1.91l-0.46,0.64c-3.85,5.38-12.64,16.36-12.72,16.46
		l-0.36,0.46l-0.6,0.14C113.66,485.96,113.01,486,112.36,486 M96.81,477.42c1,0.75,3.1,2.28,5.64,3.71c3.9,2.2,7.23,3.31,9.91,3.31
		c0.55,0,1.11-0.05,1.64-0.15l0.04-0.01c0.08-0.11,8.22-10.29,12.23-15.77l-0.12-0.09c-3.46,4.73-10.03,12.99-12.03,15.51
		l-0.19,0.25l-0.31,0.06c-6.02,0.84-14.4-5.17-16.71-6.95L96.81,477.42z"/>
	<path class="st0" d="M117.97,495.69c-3.58,0-8.64-1.13-15.04-3.4c-5.01-1.77-9.07-3.6-9.1-3.62l-0.71-0.32l1.36-2.98l0.71,0.32
		c0.15,0.07,14.78,6.68,22.69,6.72c1.97-2.03,9.38-9.87,13.65-17.2l0.38-0.69l2.82,1.65l-0.39,0.65c-2.69,4.63-6.53,9.37-9.25,12.55
		c-2.96,3.4-5.34,5.8-5.37,5.82l-0.45,0.44l-0.64,0.05C118.44,495.69,118.21,495.69,117.97,495.69 M95.2,487.59
		c1.36,0.58,4.53,1.91,8.27,3.22c6.21,2.2,11.09,3.33,14.51,3.33c0.2,0.01,0.41,0,0.61-0.03h0.07c0.02-0.03,2.34-2.38,5.27-5.77
		c2.56-2.96,6.09-7.31,8.68-11.61l-0.14-0.06c-4.58,7.6-12.17,15.55-13.68,17.06l-0.23,0.26h-0.32h-0.25
		c-7.18,0-19.61-5.2-22.73-6.55L95.2,487.59z"/>
	<path class="st0" d="M123.77,504.5l-0.79-0.07c-4.66-0.6-11.06-2.17-19-4.66c-3.39-1.05-7.08-2.28-10.37-3.45l-0.75-0.26l0.11-0.81
		l0.84-2.35l0.73,0.28c0.18,0.07,18.11,6.59,28.87,8l0.79,0.09L123.77,504.5z M94.68,495.05c3.14,1.12,6.59,2.24,9.75,3.24
		c7.44,2.32,13.46,3.8,17.99,4.46l0.02-0.12c-9.69-1.42-24.3-6.5-27.71-7.72L94.68,495.05z"/>
	<path class="st0" d="M124.92,505.43l-2.87-1.57l13.13-24.24l2.87,1.54L124.92,505.43z M124.16,503.25l0.14,0.06l11.64-21.51
		l-0.11-0.07L124.16,503.25z"/>
	<path class="st0" d="M128.75,514.01c-7.96,0-32.62-4.59-33.67-4.77l-0.77-0.14l0.6-3.2l0.76,0.12c2.86,0.54,27.66,5.05,33.74,4.68
		l0.79-0.03l0.16,3.28l-0.78,0.03C129.33,514.01,129.05,514.01,128.75,514.01 M96.14,507.84c4.35,0.81,25.41,4.59,32.57,4.59v-0.15
		c-6.87,0-26.92-3.57-32.56-4.58L96.14,507.84z"/>
	<path class="st0" d="M130.53,514.27l-2.71-1.83l13.63-20.16l2.72,1.83L130.53,514.27z M130,511.99l0.12,0.09L142,494.55l-0.14-0.1
		L130,511.99z"/>
	<path class="st0" d="M103.93,524.13l-0.33-3.24l0.76-0.11c0.18,0,19.64-2.04,28.5-2.18c1.86-3.33,8.79-15.71,10.87-19.45l0.38-0.68
		l2.85,1.59l-0.37,0.67c-2.12,3.81-9.26,16.55-10.97,19.63l-0.85,1.5h-0.98c-7.99,0-28.88,2.16-29.09,2.16L103.93,524.13z
		 M105.31,522.27l0.02,0.15c3.91-0.39,21.26-2.12,28.48-2.12l0.08-0.01l0.39-0.69c1.61-2.91,8.1-14.49,10.58-18.93l-0.15-0.09
		c-2.55,4.61-9.35,16.73-10.71,19.18l-0.23,0.38h-0.44C125.87,520.24,109.09,521.86,105.31,522.27"/>
	<path class="st0" d="M116.11,534.14l-0.67-3.23l1.43-0.28c11.55-2.39,19.03-3.89,21.73-4.29l8.5-9.22l2.41,2.21l-9.33,10.13
		l-0.61,0.06c-3.18,0.34-22.52,4.39-22.7,4.42L116.11,534.14z M117.29,532.13l0.03,0.15c3.65-0.76,19.19-4,22.09-4.29h0.02
		l7.88-8.55l-0.1-0.11l-7.84,8.48l-0.28,0.05C137.44,528.07,132.31,529,117.29,532.13"/>
	<path class="st0" d="M158.65,554.29l-0.5-0.6c-14.7-17.48-26.59-33.86-35.32-48.68c-7-11.92-11.98-22.87-14.86-32.59
		c-1.12-3.83-1.91-7.49-2.36-10.88c-0.36-2.72-0.48-5.27-0.36-7.57c0.19-4.18,1.12-6.15,1.13-6.16l0.33-0.69l2.99,1.34l-0.36,0.73
		c0,0-0.7,1.67-0.84,5.14c-0.14,3.39,0.22,9.16,2.71,17.49c4.46,14.9,16.63,40.79,49.45,79.77l0.49,0.59L158.65,554.29z
		 M107.54,449.22c-0.24,0.82-0.61,2.42-0.72,4.82c-0.12,2.23,0.01,4.68,0.35,7.33c0.43,3.31,1.22,6.87,2.31,10.62
		c2.82,9.6,7.78,20.47,14.71,32.24c8.59,14.58,20.23,30.7,34.65,47.87l0.13-0.09c-32.61-38.84-44.77-64.76-49.24-79.71
		c-2.55-8.55-2.91-14.5-2.77-18.01c0.1-2.48,0.46-4.14,0.72-5.01L107.54,449.22z"/>
	<path class="st0" d="M106.67,464.11l-4.95-6.96l2.67-1.92l4.97,6.99L106.67,464.11z M103.9,457.49l3.15,4.45l0.12-0.09l-3.15-4.43
		L103.9,457.49z"/>
	<path class="st0" d="M174.17,531.2c-2.44,0-4.14-0.12-4.92-0.19l-0.95-0.1l-0.42-0.76c-0.14-0.27-0.16-0.45-0.25-1.17
		c-0.03-0.38-0.09-0.97-0.14-1.77c-0.1-1.39-0.17-3.66-0.06-6.5c0.23-5.01,1.2-12.91,4.41-22.07c3.59-10.29,9.26-20.01,16.78-28.93
		c9.4-11.12,21.76-20.99,36.72-29.35l0.68-0.36l1.6,2.83l-0.68,0.4c-0.84,0.45-1.67,0.93-2.48,1.4c2.25,1.97,4.08,6.1,5.63,12.58
		c1.07,4.63,1.63,8.93,1.71,9.74c2.16,21.09-2.33,37.35-13.38,48.43c-4.26,4.26-9.53,7.77-15.63,10.36
		c-4.82,2.06-10.23,3.56-16.01,4.46C181.57,531.01,177.04,531.2,174.17,531.2 M169.29,529.46l0.04,0.01
		c0.8,0.06,2.45,0.17,4.83,0.17c2.82,0,7.26-0.17,12.38-0.97c5.65-0.89,10.91-2.35,15.64-4.37c5.92-2.5,11.01-5.87,15.14-10.01
		c10.68-10.73,15.03-26.59,12.92-47.09c-0.09-0.84-0.63-5.1-1.7-9.63c-1.71-7.22-3.6-10.36-5.06-11.71l-0.09,0.12
		c0.97,0.89,1.87,2.29,2.73,4.31c0.82,1.95,1.59,4.39,2.28,7.32c1.17,4.95,1.71,9.54,1.71,9.58c2.1,20.47-2.24,36.3-12.88,46.95
		c-9.3,9.37-21.8,12.98-30.64,14.36c-7.84,1.24-14.17,1.01-16.54,0.85l-0.65-0.04l-0.07-0.66c-0.15-1.33-0.37-4.17-0.15-8.26
		c0.24-4.92,1.23-12.64,4.42-21.6c5.42-15.2,18.41-36.89,49.47-55.15v-0.02c0.79-0.47,1.61-0.93,2.44-1.42l-0.06-0.12
		c-14.51,8.18-26.49,17.83-35.63,28.62c-7.4,8.78-12.95,18.33-16.49,28.42c-3.14,8.99-4.07,16.71-4.32,21.64
		c-0.12,2.76-0.05,4.96,0.04,6.32c0.06,0.76,0.11,1.34,0.15,1.69c0.06,0.38,0.07,0.53,0.09,0.62L169.29,529.46z M170.8,527.82
		c2.44,0.15,8.43,0.27,15.53-0.85c8.63-1.36,20.8-4.87,29.78-13.91c10.31-10.33,14.48-25.72,12.44-45.7
		c-0.01-0.05-0.52-4.53-1.67-9.42c-0.66-2.84-1.41-5.19-2.2-7.05c-1.12-2.62-2.11-3.66-2.74-4.09l-0.54-0.33
		c-28.9,17.69-41.15,38.29-46.33,52.87c-3.13,8.76-4.08,16.36-4.35,21.15C170.56,523.89,170.67,526.39,170.8,527.82"/>
	<path class="st0" d="M216.28,470.22l-0.56-0.55c-5.09-4.62-10.6-13.86-10.84-14.26l-0.4-0.65l2.8-1.67l0.41,0.67
		c0.23,0.36,5.61,9.29,10.22,13.48l0.59,0.54L216.28,470.22z M206.62,455.29c1.3,2.14,5.57,8.82,9.56,12.7l0.1-0.11
		c-3.95-3.85-8.22-10.55-9.52-12.67L206.62,455.29z"/>
	<path class="st0" d="M197.04,527.82l-0.6-0.49c-1.36-1.13-4.96-2.56-10.1-4.01c-4.06-1.19-7.68-1.97-7.69-1.97l-0.79-0.18l0.7-3.19
		l0.76,0.17c2.55,0.58,15.34,3.5,19.19,6.64l0.61,0.49L197.04,527.82z M179.73,519.98c1.3,0.32,4.02,0.97,7.06,1.83
		c4.84,1.39,8.21,2.69,10.02,3.85l0.1-0.11c-3.9-2.55-14.09-5.01-17.15-5.71L179.73,519.98z"/>
	<path class="st0" d="M179.73,522.02l-0.67-0.44c-1.49-0.93-3.53-3.25-6.24-7.04c-1.92-2.7-3.46-5.19-3.47-5.19l-0.43-0.67
		l2.79-1.73l0.41,0.64c2.26,3.68,6.65,9.93,8.71,11.23l0.64,0.43L179.73,522.02z M171.08,509.19c0.6,0.9,1.71,2.63,3.03,4.46
		c2.53,3.57,4.18,5.33,5.17,6.18l0.1-0.15c-2.69-2.23-6.83-8.52-8.16-10.58L171.08,509.19z"/>
	<path class="st0" d="M220.81,512.96l-34.74-0.56l-0.47-0.81c-4.29-7.76-9.53-18.33-10.54-20.38l-0.35-0.72l0.66-0.4l2.25-1.1
		l0.33,0.7c0.05,0.09,5.47,11.13,10.04,19.46l32.85,0.54L220.81,512.96z M186.99,510.85l32.28,0.54v-0.17l-32.2-0.52l-0.23-0.41
		c-3.95-7.19-8.64-16.57-9.94-19.22l-0.14,0.08c1.56,3.17,6.29,12.61,10.2,19.66L186.99,510.85z"/>
	<path class="st0" d="M192.88,505.69l-0.47-1.28c-2.22-6.2-9.76-26.21-9.83-26.39l-0.28-0.73l3.07-1.16l0.36,0.95
		c1.62,4.33,6.98,18.57,9.28,24.92c3.76-0.63,15.88-2.74,19.12-3.13c3.81-0.44,12.67-1.08,12.75-1.1l0.79-0.05l0.23,3.27l-0.79,0.05
		c-0.07,0.02-8.89,0.66-12.58,1.05c-3.72,0.46-20.13,3.35-20.28,3.37L192.88,505.69z M184.31,478.19c1.39,3.68,7.6,20.18,9.57,25.7
		l0.02,0.06h0.08c0.15-0.03,16.56-2.93,20.36-3.39c3.14-0.36,9.66-0.87,11.9-1.02l-0.02-0.14c-2.25,0.16-8.81,0.64-11.89,1.01
		c-3.43,0.41-16.99,2.77-19.66,3.24l-0.66,0.1l-0.21-0.6c-2.1-5.8-7.46-20.04-9.33-24.99L184.31,478.19z"/>
	<path class="st0" d="M203.07,492.15l-0.55-0.75c-3.28-4.21-11.97-22.71-12.06-22.89l-0.33-0.7l2.95-1.39l0.34,0.69
		c1.38,2.93,8.08,16.99,11.14,21.58c7.93-0.93,21.73-2.76,25.41-4.2l0.72-0.29l1.19,3.07l-0.73,0.27c-4.7,1.86-21.84,3.9-26.97,4.48
		L203.07,492.15z M192.2,468.54c1.63,3.42,8.76,18.36,11.54,21.9l0.08,0.04l0.18-0.02c4.84-0.55,20.44-2.43,25.86-4.14l-0.06-0.14
		c-5.78,1.81-23.44,3.86-25.52,4.06l-0.44,0.08l-0.29-0.36c-2.84-4.02-9.32-17.51-11.21-21.49L192.2,468.54z"/>
	<path class="st0" d="M213.66,482.38c-1.67,0-2.57-0.23-2.61-0.23l-0.43-0.15c-0.68-0.48-1.45-1.25-3.4-4.26
		c-1.11-1.72-2.49-3.97-4.09-6.67c-2.35-4.03-4.52-7.9-5.08-8.95l-0.52-0.93l2.86-1.57l0.36,0.66c0.67,1.21,2.87,5.14,5.21,9.11
		c4.05,6.9,5.61,8.99,6.2,9.63c0.62,0.08,2.11,0.17,4.29-0.12c2.87-0.36,7.54-1.46,13.51-4.7l0.69-0.37l1.54,2.87l-0.68,0.36
		c-6.47,3.51-11.61,4.72-14.76,5.08C215.68,482.31,214.66,482.38,213.66,482.38 M199.64,461.83c0.8,1.41,2.74,4.88,4.84,8.46
		c1.56,2.69,2.94,4.9,4.04,6.62c1.39,2.13,2.34,3.36,2.84,3.72c0.05,0.02,0.83,0.17,2.3,0.17c0.93,0,1.91-0.06,2.88-0.2
		c2.94-0.34,7.61-1.42,13.55-4.53l-0.07-0.12c-5.87,3.05-10.5,4.15-13.36,4.53c-2.68,0.32-4.39,0.15-4.99,0.07l-0.24-0.05
		l-0.18-0.17c-1.01-0.93-3.3-4.46-6.66-10.12c-2-3.46-3.92-6.9-4.8-8.5L199.64,461.83z"/>
	<path class="st0" d="M214.74,475.83l-1.8-2.75l0.66-0.42c1.33-0.89,15.08-10.32,15.2-10.41l0.63-0.43l1.86,2.67l-0.64,0.46
		c-0.14,0.09-13.86,9.54-15.26,10.44L214.74,475.83z M215.09,473.52l0.09,0.15c2.66-1.8,11.49-7.85,13.94-9.56l-0.08-0.14
		C226.57,465.65,217.74,471.75,215.09,473.52"/>
	<path class="st0" d="M160.6,541.33l-2.1-2.35l0.55-0.53c0.76-0.64,4.6-4.15,10.01-9.54c5.47-5.43,13.69-13.96,21.84-23.79
		c9.14-11.01,16.34-21.34,21.38-30.7c6.21-11.56,9.13-21.63,8.67-29.93l-0.06-0.77l3.28-0.18l0.06,0.76
		c0.23,4.7-0.47,9.91-2.16,15.49c-1.52,5.02-3.85,10.45-6.92,16.16c-5.14,9.55-12.46,20.1-21.74,31.27
		c-8.22,9.87-16.52,18.51-22.04,24.01c-5.98,5.95-10.09,9.62-10.18,9.69L160.6,541.33z M160.69,539.09l0.1,0.12
		c1.3-1.19,4.76-4.38,9.47-9.06c5.5-5.48,13.77-14.06,21.95-23.91c9.22-11.11,16.48-21.52,21.58-31.01
		c3.02-5.62,5.3-10.96,6.79-15.88c1.54-5.1,2.25-9.86,2.11-14.16h-0.14c0.24,8.44-2.75,18.5-8.91,29.98
		c-5.07,9.45-12.33,19.84-21.54,30.97c-8.2,9.86-16.45,18.43-21.92,23.91C165.56,534.6,162.09,537.82,160.69,539.09"/>
	<polygon class="st0" points="309.54,514.35 309.54,548.98 295.06,548.98 295.06,514.35 271.39,463.72 287.42,463.72 302.29,497.95 
		317.19,463.72 333.19,463.72 	"/>
	<path class="st0" d="M361.2,550.61c-12.85,0-20.35-8.26-20.35-20.85v-44.02h14.63v42.86c0,4.21,1.27,8.53,6.22,8.53
		c3.71,0,7.79-1.92,10.82-3.83v-47.56h14.51v55.84C379.65,545.89,369.87,550.61,361.2,550.61"/>
	<path class="st0" d="M431.96,548.98v-42.91c0-4.19-1.28-8.53-6.24-8.53c-3.7,0-7.78,1.94-10.82,3.83v47.61h-14.51V493.1
		c7.38-4.34,17.18-9.04,25.82-9.04c12.87,0,20.37,8.27,20.37,20.87v44.05H431.96z"/>
	<path class="st0" d="M478.38,550.61c-12.86,0-20.36-8.26-20.36-20.85v-44.02h14.62v42.86c0,4.21,1.29,8.53,6.24,8.53
		c3.67,0,7.78-1.92,10.82-3.83v-47.56h14.51v55.84C496.83,545.89,487.02,550.61,478.38,550.61"/>
	<path class="st0" d="M556.64,504.43c-5.86-3.19-11.83-7.13-18.7-7.13c-4.08,0-7.39,1.17-7.39,5.86c0,12.08,31.56,2.92,31.56,27.23
		c0,12.72-9.17,20.23-21.51,20.23c-9.17,0-17.67-4.31-25.58-8.53l5.86-11.93c6,3.16,12.23,6.99,19.22,6.99
		c4.33,0,7.51-2.15,7.51-6.75c0-10.18-31.3-3.32-31.3-27.23c0-12.2,9.03-19.2,21.11-19.2c9.05,0,17.31,4.18,25.07,8.38
		L556.64,504.43z"/>
	<path class="st0" d="M621.4,550.61c-13.48,0-25.2-6.35-25.2-22.01v-44.8c0-15.63,11.72-22.01,25.2-22.01
		c10.29,0,19.45,4.33,28.5,8.79l-6.21,11.97c-7.02-3.45-14.29-7.49-22.28-7.49c-6.37,0-10.69,4.29-10.69,10.68v40.94
		c0,6.39,4.32,10.7,10.69,10.7c8,0,15.26-4.08,22.28-7.51l6.21,11.96C640.85,546.31,631.69,550.61,621.4,550.61"/>
	<path class="st0" d="M698.5,544.39c-5.86,3.3-13.51,6.36-19.34,6.36c-12.7,0-20.35-8.15-20.35-20.88v-22.79
		c0-12.7,10.3-23.02,23.03-23.02c12.71,0,22.88,10.32,22.88,23.02v15.68h-31.4v5.97c0,4.69,1.63,8.53,6.35,8.53
		c3.7,0,9.29-2.67,12.72-4.44l5.22-2.67l7.11,10.68L698.5,544.39z M690.22,506.72c0-4.69-3.68-8.52-8.38-8.52
		c-4.72,0-8.52,3.83-8.52,8.52v3.97h16.9V506.72z"/>
	<path class="st0" d="M748.4,548.98v-42.91c0-4.19-1.28-8.53-6.26-8.53c-3.67,0-7.76,1.94-10.82,3.83v47.61h-14.5V493.1
		c7.36-4.34,17.18-9.04,25.83-9.04c12.84,0,20.37,8.27,20.37,20.87v44.05H748.4z"/>
	<path class="st0" d="M796.08,550.61c-10.8,0-17.43-5.6-17.43-18.33v-34.74h-8v-11.68h8v-13.11l14.67-4.72v17.83h12.18v11.68h-12.18
		v34.36c0,2.55,1.25,5.24,4.42,5.24c2.04,0,5.11-0.66,7.77-1.41v13.25C802.19,549.83,798.76,550.61,796.08,550.61"/>
	<path class="st0" d="M850.27,501.11c-2.91-2.28-6.85-3.57-10.54-3.57c-3.58,0-6.51,0.79-9.55,2.55v48.89h-14.51v-57.14
		c7.38-4.45,15.9-7.77,24.57-7.77c6.21,0,12.83,2.19,17.16,6.75L850.27,501.11z"/>
	<path class="st0" d="M901.58,544.39c-5.87,3.3-13.51,6.36-19.36,6.36c-12.72,0-20.36-8.15-20.36-20.88v-22.79
		c0-12.7,10.32-23.02,23.03-23.02s22.89,10.32,22.89,23.02v15.68h-31.43v5.97c0,4.69,1.65,8.53,6.35,8.53
		c3.71,0,9.32-2.67,12.74-4.44l5.22-2.67l7.11,10.68L901.58,544.39z M893.29,506.72c0-4.69-3.68-8.52-8.39-8.52
		c-4.7,0-8.54,3.83-8.54,8.52v3.97h16.92V506.72z"/>
</g>
</svg>
