<svg id="Layer_1" data-name="Layer 1" xmlns="http://www.w3.org/2000/svg" viewBox="0 0 584.61 182.96"><defs><style>.cls-1{fill:#3a3a3a;}.cls-2{fill:#8ccc00;}</style></defs><path class="cls-1" d="M330.69,80.47a29.77,29.77,0,0,0-10.6-4.66l-11.85-2.92c-3.7-1-5.54-2.3-5.54-4q.18-4.86,8.26-4.86,5.25.09,6.7,1.65a7.13,7.13,0,0,1,2.43,5H333.6A11.61,11.61,0,0,0,333,67a24.45,24.45,0,0,0-1.36-4,13.55,13.55,0,0,0-6.81-6.61q-5-2.82-14.38-2.82a27.07,27.07,0,0,0-11.76,2.33,15.77,15.77,0,0,0-7.09,6.22,17.27,17.27,0,0,0-2.24,8.75q.19,6.7,4.28,9.82A30,30,0,0,0,304,85.33l11.76,2.82q5.73,1.45,5.73,4.37a4.79,4.79,0,0,1-2.23,3.7q-2.14,1.55-6.51,1.55-11.18,0-11.18-7.58H287.44A18.26,18.26,0,0,0,289.38,98a18.43,18.43,0,0,0,5.44,5.73,21.67,21.67,0,0,0,8,3.3c.52.13,1.72.33,3.6.59a5,5,0,0,0,1.17.19,43.46,43.46,0,0,0,4.95.29,31.31,31.31,0,0,0,12.05-2.13,18.34,18.34,0,0,0,7.88-6.13,16.39,16.39,0,0,0,2.72-9.62Q335.05,83.68,330.69,80.47Z"/><path class="cls-1" d="M360.43,41H346.72v13.9h-7v9.82h7V96.12a20.6,20.6,0,0,0,1.07,6,8,8,0,0,0,4.08,3.89c1.95.84,4.86,1.27,8.75,1.27h1.85l3.2-.1,3.11-.1V96.8l-1.36.1-1.55.09c-2.53-.13-4.05-.38-4.57-.77-.58-.59-.87-1.72-.87-3.4V64.73h8.35V54.91h-8.35Z"/><path class="cls-1" d="M410.48,84.85a14.19,14.19,0,0,1-1.56,6.9,9.92,9.92,0,0,1-4.18,3.79,13,13,0,0,1-4.86,1.07q-8.75,0-8.74-9.63V54.91H377.43V89q.19,9.33,4.76,14.29,5,4.77,12.93,4.76a18.78,18.78,0,0,0,9-2.13,22.08,22.08,0,0,0,6.9-6.42v7.19H424V54.91h-13.5Z"/><path class="cls-1" d="M470.25,61.71a17.41,17.41,0,0,0-15.17-8.16,19.28,19.28,0,0,0-9.23,2.24,20.93,20.93,0,0,0-6.9,5.83,25.78,25.78,0,0,0-4,8.65,37.19,37.19,0,0,0-1.36,10.1,50.15,50.15,0,0,0,.77,8.46,43.32,43.32,0,0,0,2.24,6.9,22.47,22.47,0,0,0,7.77,9.33,20.28,20.28,0,0,0,11.08,3,7.75,7.75,0,0,0,3.89-1c.13-.06.39-.23.78-.48a7.49,7.49,0,0,1,1.07-.78l.39-.29a18.92,18.92,0,0,0,1.75-1.46l3.69-2.92a7.59,7.59,0,0,1,3.59-.87v6.41H484V36.83H470.44Zm-.59,27.8a13.1,13.1,0,0,1-4,5.35,11.45,11.45,0,0,1-6.8,1.94q-5.94-.19-8.56-4.86a22.49,22.49,0,0,1-2.62-10.69q.19-7.09,2.72-11.47,2.71-4.47,8.84-4.47Q471,65.41,471,82A21.64,21.64,0,0,1,469.66,89.51Z"/><rect class="cls-1" x="496.39" y="54.91" width="13.7" height="51.8"/><rect class="cls-1" x="496.39" y="36.06" width="13.7" height="12.73"/><path class="cls-1" d="M565.78,60.94a20.56,20.56,0,0,0-8.26-5.45,30,30,0,0,0-11-1.94,30.62,30.62,0,0,0-11.76,2.14,21.5,21.5,0,0,0-8.26,5.93,26.28,26.28,0,0,0-5,8.84,33.32,33.32,0,0,0-1.65,10.4,37.49,37.49,0,0,0,2.72,13.22,23.46,23.46,0,0,0,8.75,10.11q5.93,3.89,15.16,3.88c5.63,0,10.4-1.16,14.28-3.5a22.86,22.86,0,0,0,9-9.71,30.55,30.55,0,0,0,3-14A33.66,33.66,0,0,0,571,69.59,25.9,25.9,0,0,0,565.78,60.94Zm-9.62,31q-2.62,4.66-9.62,4.67-7.29,0-9.92-4.67A23,23,0,0,1,534,80.86a21.68,21.68,0,0,1,2.62-11.08q2.82-4.66,9.92-4.66t9.62,4.66a21,21,0,0,1,2.72,11.08A22.28,22.28,0,0,1,556.16,91.94Z"/><polygon class="cls-1" points="50.65 116.59 8.22 169.81 16.7 180.46 59.13 127.23 50.65 116.59"/><polygon class="cls-1" points="45.97 89.39 101.56 159.17 110.05 148.52 54.45 78.74 45.97 89.39"/><polygon class="cls-1" points="93.08 63.36 101.56 74 150.08 13.15 141.59 2.51 93.08 63.36"/><path class="cls-2" d="M203.47,93l-11-38.1H177.32l1.46,4.37,17.69,49.47c-.26,1-.55,2.08-.87,3.11a8.45,8.45,0,0,1-1,2.14,4.54,4.54,0,0,1-2.91,2.14,16.1,16.1,0,0,1-4.37.49l-2.43-.2v11l2.62.1,3.4.1a31.92,31.92,0,0,0,7.48-.78,9.92,9.92,0,0,0,4.67-3,24,24,0,0,0,3.69-6.32l4.28-11.76.39-1.07,17.3-49.76H214.35Z"/><path class="cls-2" d="M257.6,93l-11-38.1H231.46l1.46,4.37,17.68,49.47c-.26,1-.55,2.08-.87,3.11a8.54,8.54,0,0,1-1,2.14,4.58,4.58,0,0,1-2.92,2.14,16.1,16.1,0,0,1-4.37.49l-2.43-.2v11l2.62.1,3.4.1a32,32,0,0,0,7.49-.78,9.89,9.89,0,0,0,4.66-3,24.26,24.26,0,0,0,3.7-6.32l4.27-11.76.39-1.07,17.3-49.76H268.49Z"/><polygon class="cls-2" points="42.08 169.71 50.65 180.46 76.11 148.52 67.62 137.88 42.08 169.71"/><polygon class="cls-2" points="93.08 84.65 59.13 42.07 50.65 52.71 84.59 95.3 93.08 84.65"/><polygon class="cls-2" points="93.08 105.94 101.56 116.59 150.08 55.73 141.59 45.09 93.08 105.94"/></svg>