<?xml version="1.0" encoding="utf-8"?>
<!-- Generator: Adobe Illustrator 19.0.0, SVG Export Plug-In . SVG Version: 6.00 Build 0)  -->
<svg version="1.1" id="Layer_1" xmlns="http://www.w3.org/2000/svg" xmlns:xlink="http://www.w3.org/1999/xlink" x="0px" y="0px"
	 viewBox="0 0 1920 1080" style="enable-background:new 0 0 1920 1080;" xml:space="preserve">
<style type="text/css">
	.st0{opacity:5.000310e-002;}
	.st1{clip-path:url(#SVGID_2_);fill:#3A3A3A;}
	.st2{clip-path:url(#SVGID_4_);fill:#3A3A3A;}
	.st3{fill:#EFD414;}
	.st4{clip-path:url(#SVGID_6_);fill:#3A3A3A;}
	.st5{clip-path:url(#SVGID_8_);fill:#3A3A3A;}
	.st6{clip-path:url(#SVGID_10_);fill:#3A3A3A;}
	.st7{clip-path:url(#SVGID_12_);fill:#3A3A3A;}
	.st8{clip-path:url(#SVGID_14_);fill:#3A3A3A;}
	.st9{clip-path:url(#SVGID_16_);fill:#3A3A3A;}
	.st10{clip-path:url(#SVGID_18_);fill:#3A3A3A;}
	.st11{clip-path:url(#SVGID_20_);fill:#3A3A3A;}
	.st12{clip-path:url(#SVGID_22_);fill:#3A3A3A;}
	.st13{clip-path:url(#SVGID_24_);fill:#3A3A3A;}
</style>
<g>
	<g class="st0">
		<g>
			<defs>
				<rect id="SVGID_1_" x="1101.5" y="1" width="31.6" height="60.5"/>
			</defs>
			<clipPath id="SVGID_2_">
				<use xlink:href="#SVGID_1_"  style="overflow:visible;"/>
			</clipPath>
			<polygon class="st1" points="1125.3,1 1101.5,1 1119.7,61.5 1125.9,61.5 1133.1,34.9 			"/>
		</g>
	</g>
	<g class="st0">
		<g>
			<defs>
				<rect id="SVGID_3_" x="1150.1" y="1" width="18.6" height="60.5"/>
			</defs>
			<clipPath id="SVGID_4_">
				<use xlink:href="#SVGID_3_"  style="overflow:visible;"/>
			</clipPath>
			<polygon class="st2" points="1157.7,1 1150.1,29.9 1158.6,61.5 1161.6,61.5 1168.7,34.9 1160.6,1 			"/>
		</g>
	</g>
	<polygon class="st3" points="1168.7,34.9 1168.7,34.9 1161.6,61.5 1180,61.5 1199.2,1 1177.9,1 	"/>
	<polygon class="st3" points="1142.4,1 1133.1,34.9 1125.9,61.5 1141.8,61.5 1150.1,29.9 1157.7,1 	"/>
	<g class="st0">
		<g>
			<defs>
				<rect id="SVGID_5_" x="587.2" y="284" width="80.8" height="33.3"/>
			</defs>
			<clipPath id="SVGID_6_">
				<use xlink:href="#SVGID_5_"  style="overflow:visible;"/>
			</clipPath>
			<path class="st4" d="M641.4,289.9c-0.9,4.3-3.9,8.1-11.8,8.1c-8.1,0-13.4-4.9-14.1-14h-28.4c2.4,21.5,19.2,33.3,41.5,33.3
				c23.9,0,37-10.1,39.3-27.4H641.4z"/>
		</g>
	</g>
	<g class="st0">
		<g>
			<defs>
				<rect id="SVGID_7_" x="587.6" y="238" width="79.6" height="31.2"/>
			</defs>
			<clipPath id="SVGID_8_">
				<use xlink:href="#SVGID_7_"  style="overflow:visible;"/>
			</clipPath>
			<path class="st5" d="M628.6,256.3c7.6,0,11.5,4.9,11.8,13h26.8c-3.2-21.5-19.6-31.2-38.6-31.2c-20.3,0-37.2,11.7-41,31.2h28
				C616.8,260.7,621.7,256.3,628.6,256.3"/>
		</g>
	</g>
	<g class="st0">
		<g>
			<defs>
				<rect id="SVGID_9_" x="864.1" y="238" width="45" height="30.4"/>
			</defs>
			<clipPath id="SVGID_10_">
				<use xlink:href="#SVGID_9_"  style="overflow:visible;"/>
			</clipPath>
			<path class="st6" d="M901.2,238c-21.6,0-36,9.4-37.2,27.8h26.5c0.4-3.9,2.4-8.1,8.9-8.1c7.6,0,9.5,4.4,9.5,10.7v-30
				C906.6,238.1,904,238,901.2,238"/>
		</g>
	</g>
	<g class="st0">
		<g>
			<defs>
				<rect id="SVGID_11_" x="861.4" y="269.8" width="47.7" height="47.5"/>
			</defs>
			<clipPath id="SVGID_12_">
				<use xlink:href="#SVGID_11_"  style="overflow:visible;"/>
			</clipPath>
			<path class="st7" d="M897.2,298.3c-5.2,0-7.9-2.3-7.9-5.9c0-5.3,3.5-7.2,13-7.2h6.8v-15.4l-7.2,0.1c-26.1,0-40.5,6.9-40.5,24.6
				c0,16.1,12.1,22.8,25.6,22.8c12.2,0,18.9-5.3,22-10.5v8.6h0v-26.4C909.1,294.7,903.7,298.3,897.2,298.3"/>
		</g>
	</g>
	<g class="st0">
		<g>
			<defs>
				<rect id="SVGID_13_" x="1506.2" y="436.9" width="44.5" height="75.3"/>
			</defs>
			<clipPath id="SVGID_14_">
				<use xlink:href="#SVGID_13_"  style="overflow:visible;"/>
			</clipPath>
			<polyline class="st8" points="1550.7,482.7 1536.4,436.9 1506.2,436.9 1506.2,436.9 1533.8,512.2 1541.4,512.2 1541.4,512.2 			
				"/>
		</g>
	</g>
	<g class="st0">
		<g>
			<defs>
				<rect id="SVGID_15_" x="1711.1" y="481" width="80.8" height="33.3"/>
			</defs>
			<clipPath id="SVGID_16_">
				<use xlink:href="#SVGID_15_"  style="overflow:visible;"/>
			</clipPath>
			<path class="st9" d="M1752.6,514.2c23.9,0,37-10.1,39.3-27.4h-26.5c-0.9,4.3-3.9,8.1-11.8,8.1c-8.1,0-13.4-4.9-14.1-14h-28.4
				C1713.5,502.5,1730.3,514.2,1752.6,514.2"/>
		</g>
	</g>
	<g class="st0">
		<g>
			<defs>
				<rect id="SVGID_17_" x="1711.6" y="434.9" width="79.6" height="31.2"/>
			</defs>
			<clipPath id="SVGID_18_">
				<use xlink:href="#SVGID_17_"  style="overflow:visible;"/>
			</clipPath>
			<path class="st10" d="M1752.6,453.2c7.6,0,11.5,4.9,11.8,13h26.8c-3.2-21.5-19.6-31.2-38.6-31.2c-20.3,0-37.2,11.7-41,31.2h28
				C1740.8,457.7,1745.7,453.2,1752.6,453.2"/>
		</g>
	</g>
	<g class="st0">
		<g>
			<defs>
				<rect id="SVGID_19_" x="1723.8" y="905.4" width="66.9" height="24.9"/>
			</defs>
			<clipPath id="SVGID_20_">
				<use xlink:href="#SVGID_19_"  style="overflow:visible;"/>
			</clipPath>
			<path class="st11" d="M1749.6,930c-0.2-0.5-0.3-1-0.3-1.6c0-2.9,2.3-5.2,7.5-5.2c5.2,0,7.6,2.6,8.5,7.1h25.5
				c-1.7-18.4-14.8-24.9-34.4-24.9c-15.6,0-28.8,5.9-32.5,18.1l14.6,3.7L1749.6,930z"/>
		</g>
	</g>
	<g class="st0">
		<g>
			<defs>
				<rect id="SVGID_21_" x="1722.1" y="958.6" width="69.7" height="26.1"/>
			</defs>
			<clipPath id="SVGID_22_">
				<use xlink:href="#SVGID_21_"  style="overflow:visible;"/>
			</clipPath>
			<path class="st12" d="M1765.3,961.1c0,3.2-2.4,5.3-7.9,5.3c-6.5,0-8.5-2.9-9.4-7.8h-25.9c0.4,17,13.4,26.1,35.4,26.1
				c17.8,0,30.6-5.5,34.3-18.2l-26.7-6.7C1765.2,960.2,1765.3,960.6,1765.3,961.1"/>
		</g>
	</g>
	<g class="st0">
		<g>
			<defs>
				<rect id="SVGID_23_" x="1552" y="906.8" width="24.2" height="41.6"/>
			</defs>
			<clipPath id="SVGID_24_">
				<use xlink:href="#SVGID_23_"  style="overflow:visible;"/>
			</clipPath>
			<path class="st13" d="M1552,923.1v25.3c0-10.8,8.5-16,24.2-15.1v-26.5C1565,906.7,1556.8,911.4,1552,923.1"/>
		</g>
	</g>
</g>
</svg>
